<mxfile host="app.diagrams.net" modified="2024-01-08T12:36:31.093Z" agent="Mozilla/5.0 (Windows NT 10.0; Win64; x64) AppleWebKit/537.36 (KHTML, like Gecko) Chrome/120.0.0.0 Safari/537.36" etag="ao9vbgCvFIOOcqpaVhnA" version="22.1.15" type="github">
  <diagram id="C5RBs43oDa-KdzZeNtuy" name="Page-1">
    <mxGraphModel dx="989" dy="543" grid="1" gridSize="10" guides="1" tooltips="1" connect="1" arrows="1" fold="1" page="1" pageScale="1" pageWidth="850" pageHeight="1100" math="0" shadow="0">
      <root>
        <mxCell id="WIyWlLk6GJQsqaUBKTNV-0" />
        <mxCell id="WIyWlLk6GJQsqaUBKTNV-1" parent="WIyWlLk6GJQsqaUBKTNV-0" />
        <mxCell id="WIyWlLk6GJQsqaUBKTNV-3" value="点击开启" style="rounded=0;whiteSpace=wrap;html=1;fontSize=12;glass=0;strokeWidth=1;shadow=0;sketch=1;curveFitting=1;jiggle=2;labelBackgroundColor=none;fillColor=#A8DADC;strokeColor=#457B9D;fontColor=#1D3557;" parent="WIyWlLk6GJQsqaUBKTNV-1" vertex="1">
          <mxGeometry x="160" y="70" width="120" height="40" as="geometry" />
        </mxCell>
        <mxCell id="35jMkJhGXixxvMOsPopn-0" value="" style="shape=image;imageAspect=0;aspect=fixed;verticalLabelPosition=bottom;verticalAlign=top;fontSize=16;image=data:image/png,iVBORw0KGgoAAAANSUhEUgAAAE8AAABeCAYAAABivkm4AAAgAElEQVR4nI19R5Ak6XXeS1NZ3rbvnpmemR23FrsLAcSSAkW5CEqkyIskBk8KnaWzztJRZ91EXRSUCSrIEMQAwQBJkLHEAuvNYGZ2vGvvy7u0et97f2Z1zywl5qLRPdVVmf///me+Z9t6/4f/KSG+2uMSHY+K5IcWWZZDrmPjZUqShH8mcm2LErLwCllJQI41orLVpSJ/7ewd09Z+nyr5hK5dcKlS92g6CujRc58ePJ/Svac+Df0RlUohzTU8Wlso0tJcgUoFh6IwoMN2QN1hREHA9+ZHlIs2NasuFfn3eG7es2ll3qNS0SXL/LvMP2NtnV5IQejIWoMgpGkQk+M4lFge+ZHD/7ZoGtpk87qblZjCyiJ5pSYVS3XK58tUq1VocW6e7LhAEz+gSikn+90/GtDeYYcmkzHxI3ld2LtFtmPRfLVAq/NFcperPRoFeWpPyhTGOV5QyA+3MsLZti0fNi+Qa/XJsw+pYO1ThYm4uTum7f0xVQoJXVnNUZ5pfvf+kO4z4e49mVLOtahWtunGKzVqNR0hzngS0MbukHrDkHxszo+ZkDbN1V2qlhzegMPEcZgoMY2nMX9PhMDU9pl4RJWyS3M1j8olJjA/sMyfLRVy/FWhKMZnQoqikEI+mP7EppjZI8d7yudi2k8s/l1A/nRI9VqVlhbn+TAqdHwYMcGG5NgxVcs5KvABNaoejXMR3zOhOOIv/s7f6KTvK5GHfpEGfp4mQUGo67guEwtcFhNYMo7xPeHXQ/KsIVmT51TNd6ie69FWu0m7/TKtLLv06nl+b+LSR7fH9PPPD2nvaMz3LNO3rhbo0lqeCgWiMLHpuE/0fHdE+3yqg5HPHOwJlxe9iI5PLPLyLhOO18LcMxj6FEaxrMu2Ev45kbUVPIu5EgRjLmci13iz8808zTfyvCmXPJc3XsHrIC7vyUmYeOAel3LJlBImpOfFtLpSpObiEkWTIT0bHVIuX6CDgxPaO/BpbaXCjONQf2TTcDSSgwTnYQ3Chcxk7vN2i9nbpQETD5IKQlESC6PhPSCj50yo7rQpH+0xMffI8RMmnEv3jgrUZG557RWPctaEPn8Q0i+exXTEBCoWIrqw5lKjlrDY+LS1NaXehMUoqVBnlKdxmGcVERIxF9jM2t0+uDBicbOZgPya41Ic4ruKZMTvjZlr+CxZAPhA41jWV8hZLM7MqYZbm9UctZgrL6015KtVc0QFeK4jm15l7i/kHSYeH8JKg++8TA4f7JVXAtreOWYOPCGfmSCG2AclavcTand85ryYcrkcr4HpY8XMuT65B6OSUBSn47Cui+JQWB8PytlTFtMpNb0RNZ0Dmk52idUH7Xds+tlDj5q1Ib25TtTtJvTFgxHdfDjmA7DojatLVPbKfFo268IBdQdjao9CJkyeao0c1SoVev1Si77zzjkRp68fbNPPP3tCW7tt/rwta0l4HTnmINfNieqIePMhiC2XLSoFUoGv3oD1Jm/QZ32n4skEa4zowsqQbqxX6LXLLJ5NPNel+bJHhUqZCQFWXKH0qlRuMIF/xJzbpeWVVf59QPsHXd5zKHreZs6CvmOqygGOpqzCXNvV5VhqDPA/i0/fSSZUtXYoF25TgTmT1TBzjEVbxzZtnvBmmH2vrvosWkQfPgno6c6EX4upxXri+nmX9k+KdOdZQO0uTokoX/RodalGr15Zojevn6NL5+q0en6OF2DR69dX6Pxai97/8AHde7jPHBlnOhd6y/M8+TkxEkFkGckQTc5czuIpSoaYgIl8HR11qN/tstJv0sYBb5S55q0rVTp/tENXLlZpbZG5MtxgS7iWEfDS5fO0sFim0ahDz549p+O9CY1YLcV2jQ80L7QREpmDcwuFEoX+RDQciGYzSzp2RLXoAYvnAXNAQMMesy6L6gYT7sGuTe2hTddXWIwii754EtPGzoh83+dN5qk7cumD22ztkiJdWF+hd5pvUik3YmPAFpOt7OXzLSbcHIuaR0NeCJ578cIcK+8ii3iJ1/AL+urOthgn6N086yEyuhfrEx2cxMb6qW6BXkyg1BNVNVD2uRxzl5Nj4vOB7w2o2Vyi5yfn6YuH92n56wm99y02cMcf0o3X2UAufB+KQUS4wlJhW4wmmNMWamPKx2M6GUc0jeb5OfxeZrY4iZR4xUKZhpHPOoUXRD7NFw4pGXzNcGTKb2LTzq8HUUTDccJWxhGLU+f9VAshfXDTZ4WqC87nPfJyrijpuWaD1laX6Lf/2e/S0sUVik9uM0vs8qJCEUdlckAeFgcDf+YaJXrn9fO0sXWixIOJT1hHTicZZyTm1PGVch6+JtNIDAW+Ahbd0SRmKSAxEkHg0+Fhj3q9LkOlCosv63A3pvc/O6Y//6hHrcY+Xbn8M1q9WKdqVeGQ4+LQcuRVLaraAyoz7Nrp+sxAC2IoHDEOzM0w6XhQ3p3QfOmAxgd3RcnyI2g8nvIGLepMXdpoJ7R5OGHuYgJVPOpOmVh8wktlWFKH6tUyLS816fx8gTlpia5dZ2VYV51it6pEgy4Rw4PQZyvl4BAisqNY5cBceV4U9CE2OR0PWWcGlDJYqusssmZcl6jlK5fL1GjWaTgc0Ig/B4NnszqYYmN8OWzB/Zih06Ov6KRVYS6vsf7Ki6QcddjKf75L5Vt7fPAhw5SQLq56dJkRwtpajZK5MqOCiJqdDqOIPQqKV/hM82JY3TGb6XxuzNx0yFhiR0z/NFCLC3wDOHHUc6m1sEhLjONwsksLZd6oywQr0QoTbKFVEjEUjgA7s5InXixNP+OV888MkGFVcU+c2mnuOXMxTfDZRmOOpvkitU+O+GD9M78XACyPiWYvMwH7/S5N+LATPuxiqSxE94OpYlQYPz50fD856dJgMGKxZsNRKIpawFuO+X6OzVLBquLxE4u+rLn0xut1euPVOZpvFcSIvX4lpq8f3aO4+gZLI9Zq96jqHVEy3qZh+5hPMc9gmTfJuApGoT3J0+LqGv3Wr797Zp85YC+yMuWdckIcwzqxvDA8oWFHZVp2GwncCJkbAMKhv6DxTl/yNv6/YrHMGK4kVnY06tNw0MuIDbUBaAMMBgKKUWHRDPxIPm/x65FwnBFtO/WUoCcT+VwYRvyV6umJHqhIYCL6kx0mlo6E7m2c0O2Hh/Ttt1iSLjXp6uUKb6NDDzbvU5K/TG7ZPSQ33KNw2KYJnwgo7LObg0dPIWKFBTp/buFlLplt+QwBsTlACgf6TAhp6Tt4E/hyDMGicLbB9NrY6dCtB0fCXTBkRRbfk+N9/rfLkGHC61IuxL9x+b5yX5wogLWFK1lHM1FAKIuJAnwGl05fYw50lehQ+CAyvhT0xgLR4ni2p6M2G4tunxEFu489n65dZl3OwDqZHNPT9gYTeLpN416bbLa4OMUpL3AyDfhn9QYmjPM63dH/g3gzrgGXCSaLlAtsW31VMos7TWBsiIzk3bq7TT/95BGf8hEdsA6yHBUnzytQoViS71D8A+ZAGBDdeGgMhq3APl2H7p6Vfo5AYxjCiJkB54tD9eNQ3oN7OIbYwrFWygT2KaZImBYhPdnoMuSa0qNnbfreO8u01oIVPyB30j1m4g2EcLjZhC2VzeYY+Guvk6Pd4zZbrQL96juXxVhkl0NnFp0+jpjolsifbiQBFIN1Sh3kJPWbVfThzD9+fkAfffmUnm118WYmWBnsJOKLm3pMyEq1wTCixlazzaC8o9xtODCKlZDpAYqbyXsRceTfgVC2iDOjB8NZ4EgEOmzRn2pBLSsnTKP2CL+3CXTv9CNq9/p0eMKcyGD8Ozfm6VUG3s6//I3X/30AjMQf8AoeryTP/mCBUTuxbEcCWkNGuZfOzdPKfJVwQHJINp1RdxlhhJtO60ESwk1YxEZjn53w2QG4sjx+N/vTj5lwj54esWgGQlCbiZhjjpvysxF5wX0KxTzl2UmGeMJ9E3Hm34uIggMN/sPmJTAQBOoX8/sQKcK/E6NG4kS/AMXwTBA1Ed81NL9PlHiRLZEZGBgEH+4+6tHGPvvijC5c9tCgHRlY5miutcTOf40ePn5AP2Votn/sC5UOmOI//ewZXVmfFywHvfEi3U6zOojX609YZ4zo4HhA7cGUhpOAFudK9GvfeyV7NzgB7tyVy4u0vFhjbmeCMESC2LfZOxhNfDEGRT5UiPFozBsoIYxUZy6ssjEZyn18f8xfE+PvWmrNSVWGgOpIuS/m+4KfoE/zZYZD0zHj157cI2YCOnbAB+YJBztyOLZwMLyviR/T9qFPdYZpW7tj+sGPt8mFwxyLjrKpXFmggtOkH396hx4/eyInX2NxSfhkP729RWtLFbp+iS3PxQU+CeWggG12fzhldh7xhsc0GoZizbpDnzZ3O4zuu7R72Gf2j+iXvrV2lngQJ1hdS9CbED3VY+Cc8Xgg8h2y5e4PBkJcuGr4jk1WGN8tMIQaAN8N+6IXA4YnIqbCfRG7hmMhANwz7BPwBZEj9j7l/acRU5yoF4Nn4HfipjqOrDNg4iKy02pUxRM6PGK2y3saN4Mlu8+uywdfWvR8a1MUMwKB0wljIvYeBkOH/ssf/Jz+xT95h9ZXm5QrGosXQKEe0QefPqHbD/YYdAb8ualABnAA2N11VWTa32B4IB6+H2rMjN2ehDfo5gpsaWuygSnjUNVt6omMx2PlMERiGLh6LDGifQGMbVuALwzShMEynPmF5TUaM4cOWFe6vJa8XWSCYm8j5dA4MZ9PYQy8LV/kB5gzDPX34ELYgq0DloapxUCb9zUeIxIbskkO6ct7PSbEWJQxFpDwZsZjxkPhlPVNgcVVkfUsOkpULuWFAE82j+jpxjEvME8RkD/DAegnx/VEIU99X07+xQunetLmzQ0noudgiCQAyxvBFzagmFAv/C6xUqMTC1ZLzbb6vUpIEBdQB97KZKyYLs+g2LZcUQWn14J75pjoeI7vT0VMoVejSMNeakwsDbT2fV6iKyRw/QgECujhs2N6+JwdYPYTffYG2MBLQBLqFUp0ytwEL8JigAt3R6LNhuevsi78u3/nKj3eYPcrhu/I1pq5pcDEwyH0+2M+/amIMxnLiMvKaaxuwobEZ/0miwbEsHPy+VoVem3En++pOKsmEzViGU6Mk9hwz4x4CkNsiQe2jw9oxBDH4YPwjZ+cBhnI6EfodUgIuBvEU2BtiRWHWrGY47D0FHXZ9lQiN+yeTWn/JKCNA5vGrB9wL9wAVM/Z5gEQzzAQMZprliTmdvpqsVN/+cICK/KacpA5qfEY4jFhfTRgkBrw/QPRjXPN8pnPO65NBTYIJYYi+UJZNoNFLy4usTt1wtCkZ07feA3GKEmIKqHsMCBW4jPb+hr2AYJF4tU44uHMdJz6ybYYBTcDzeB2ENYynpEAcFjgxFHPBgxlIecSkItw0uYxWzhnnhcesyvUNy6WniAZ0y8ixQ9eYCffts/aWtsg9wJ0I3spEesJiCkIN52yv2n8UOi2k87wJeLl4FEwGK7VWuwK54XLY14wRE0V9+x5dupuSSLKzvBdkhhALoTFBlXJp3mY6IzKMLFL/g61ABwZBhPDsa78TmOFdiZdaQJIDszSvIt7l0X1ZBBTnTmqNbcopwUTnpiHyXos5QRRyK57ZjPpNWSlvLW9KcmaOLZk41hwbMLlSmDkJ7yXPgu9WSpqDmXMvuxoyOLP5wfjAKsL6ydLtxON8xkokhj1G8JLp9RTsIQDQTwwQWTbRjQTQ+RZoBVMkIa1IKoiuhZlHghZM/2r3kgakNUMnjsI6kysjlgkKNRGc17Ye8zWCjfFa4mYal8MyDcBPHBUj/Val7EZnGvb8TLWn3EpHuiwiJdf+nylpAB0OOjyiU7Ev7RZ74HgjgeMpx4DjAAiy1AB6p9GxhXUQ1IO0UOGsYKRGzKEgYHweB8x7wv7gA43GkCNBwIMTPwcjBPiKuaAMsJasziiBiT0We7C0oos8mB/R0I55VqDFlfO08HupuoK5hY41WrBYOliNSbwDxJV28Mx47qBL1yAZI8Hhc/GABEUGAnHVpQPQuYZHyZRGvFQjnAlZwGIMJX8auo95At54VY8F+lAEBnqYTz1GWf1GV+OZH29Tij4Dvoy8KcCN5rlOao3mtQ5OWIC9qhWb8nBwPIiyAAIBn2oXKk4U3XeTC2IsRDPRV04EBJ0g1HFa67HGzh3bo31lUv37t6Sk4Xib83NU485CdwEQFwu12ThCUXyxZoqC4pMfcZf/HXuwhpvpsDiu8cWbigqA4Rz+fOW4YpTYTgmVJSJU73s0tULLfZn85LvgC4Ct83PzQvH5tnC1ZFPZW8D8cbHGyf0i3ubNA7yNN9qyFqg/J8+eSwxu92d50KsMhshx4dUtEWvwsWrVBHunxdCI4AKguJncKDnFQ0ssRWuGb/YZcgF6wuIUyhowt3FTfP5PNXrDVpZOUe7e3vi9pRKJX5IVX6H8FEqIukl+gM3Z6rAe2CMQRcuXuaNl6nTHTL0GAkhkJHH5pH5X5qvnPq8JpHTbPyb15fZfWuwi1imYtnJ3teslyVy7UH/GOUNUL9/PE+X1ioM6vcpX1mlo6N9Oj46oKWlZcF3x8f7dHK0JxJTqTYZsuwLbEFeuMruHZ4LQwGCggMhzhOjY4UbxaZEIsJpoCENKKh6sBARt8WbgGVqtuZowtYR8AAnWa06fHKa/J2MxqwnJhlbGzUm15gxWq/PeKx7TJE/oNX5Ep1fvEitVoWWl1q0vFCkhaZH55ebZlFKBHge2Bxg0dWLNbp+uSHYMrFzLyvWeOZHISV5jl3F3/r7r9DqYoH+4M926fDgiNqdtoSvXJd1d4vdtv4xE3Bf9lYsV0W0ceBj5jaAYoEvoloCUV1eHq+VxEmALoxcgyGFeK4Cd8dRAwbiIewDH1IiGUwY6L38UPMH/X5frCYIWGJHvJSvMhcURXGrJVdLBsf9lQtzNF8v0OXlMm+IuXiJMRu7Ti5vNEZgOdXQOLipZZC76pDYOPSSWLFtetkP+ebLY736y29fYM+mTdtboRwCpCZJhhJ2r7Ke8+D897sSmQFHuvxMoIk0IDqdjGUP4g05jgHjlhI3Ti36zOcWornmu3IA/MExc91E9FSRRdYBN/IJQCdAAVcrITWrLVq/MK/R2BDRCtVjS/N1+gfv1ajIJ2UnoVGwsak4eOEC4+ZBwL8lhf4W143L83yAT01AwRcDh9KPWqlJJXAcwLI/Eb93bn5ROA14FpZY/G/mJNtWsKyoIjbwRPWe6lNHoExsrDuMpRvCBXEURMKNQQwLHLO6UKW15RpdWGnQxdUmrS41WAxLTKCcuDqxgxig5ixwEl7ekXgen5k4+WCpBPdF+J1fz8UmYJViJZsEyyHOZtvq+Edhan3jlwiE30QvJo3AvXyQHfZq4iTFgJSVaAhXxQhBlcV6gjAItpbKRUEBiOPZJukvrmNiGazoZJ6I6HVAlMTJ1oGiH8meSSKXF4EKpevr5+jC2hydZ4I1a0WqlfMMYD0BtqWSJ26PKkxLviuAtE0EWYGlLBy+5ynXTvaZGN9UDE2KnRQkSFhK8lYSfv7GWKEGJ18gKG+sy+7eTz7eok5/KlhtVhphiyEAfgXHQT2NeK/7e9uaLpDQU4kSL9FwFsOfKet0RLHBgeDORBJMZr+x1qdAL6ZYz/21d1dYV+VpsVlgLFSmerVAjVpBgp7AZSk6h54DCwsbU2xi/1bKAHKlJ64k0a0mJiSfukN6O5Pap9StskRdWPBM2FvoMSFgUZF/2D+ZCMdhLdCthbwtmb0pA+X+yKf3P92me0/arHLiNF+mOoosgxc1zDQaI6xfof6gI9gPoteaW6L5hRUxACeHe6wLZ64gHAWUoiXGRU0Sdd2i0J55Thuf/dekxYoeEZNp/OLZmk2n6Yc4BbdWlnx+MXtPlmUInMyiJ7GSk0xqUS2YuWeiIZ+Hz4/p7uMDhjkTGoym4rXgcA46E7lfo8HgfWGJ9eyI9VVbYoYoxPzs9o7U+yEemeaY1P/U/DEw6mg00H0gp1suIOvFWsNnncfcFuSEgCDywe6WnDM8DSkGkNBcJFIE7sX9oDtjU/bmnme9lvLFN12peyKAMTvbs5ZACJggqqaFiONJaDYU8UmPefEBW3SfLXWe3n3tvPqPxg9NRNwTuvVwn/7gT24yzoTedTLOxHugs7x8n7HiNkMIFc9yucHeUJ3K1QXqDTYEi6a+KYC4cAavKJ/LUX2hJsVAeUZAa8usw9cXpUDy4KBNX916RlsHHXJKbAwvXaNd9qzggQinQb+zTU3zIVhzKDmWgFpseNwUFqTZh5evtJokyqIXElm1NLqGpM5Jd0Rd9m1RXdDuTeikM6Y2cxAzDx13p/yaT0cnA7qxXqV3XlvLONZKaWRpUQ+CjVCp8EriNMtGlqAAfLl2ItgQ4iO+N3MEgq8IeMKiYmX4jh9QOLR+rk4rbPhWmGBL8zVaaRXpKhMOYXRcE17go+/u0R/96GP6wV/cEQ4EgAZc67SPTHJdw1xiZYM0Zemy/puSeyYwbn+DqmY3hSR5FQg4Vb0XaxaN/0PG6ycfPqRPbm3S9n5fuAY+LZIujtTWOaKsiwV2jUo1ttCxxAPF+DioWTDaEISx1afVUOcsyxaFoYlEqq8JXQbD3OkxxyDPwHiPgYR8Kl8s0JQ9hUsXGvRv//WvsAFsZPdxhBtRbKm7hp69crFB/+q336X/9oNP+J57TMAlXi97V+xxTUYjcRqwJiSehoMBHzhqpQvq257N98/EULFaIk58txMw53Tp9WstxW54aqw6bHu/Qzfv79LO4ZA34Uk0xJHyTeXXKfuVcMyhJ8DuKXtLZMKhly4pGpfPmioABCdtDVY6tkIIRFXSUBGi3k6iyR5JDKE2xoTOK+WXw18vPS/Rcl0EPRF/HLBjgOi1cB30Wk69Hehq21UcGJt6HBdK88WHQMQePDmg2/e36fbdbTo8GtKbN9botav/eBamMe+FbkNWHeytUVjSzcPdYSe7WK7xCQ40W48ohqEeRNShmavnmHyF42jhpHiBSZqLVU6VOBsAqoFEXr6onBprfhb6CFwKcN9mCHP73h796vcu/41Eg0++tduhP/zRLYEoCOACPEtWD9adORC+vdw7VA9Moy+acHf/8//4hF69MkfXLi9StzeiT25u0ONnbQmX9/oD6vX6VMyjbi2fWU/RV/wfHn7YmTJITbIUnZo8W2NoOU98TbBLwKdqGXwVm+juaZ5v1Es036rS7uGYTxuxv4IkpAf9nlZdCcEjSouD8GPgT0x+VR13uJKSEOI1oBXgLz94KGJ78Xwrew6s+A5Ly9eP9ugWSwyiM3vHEwlfHR8fShIdzwOHp4GCnHCfiT5rdFh+dr+6s0tf39+iKgNiJF/2D3usSElOL5hG4gWUGjk6x079ixHkHpLZ41BQOwwKED24BGlDpPlA5EHvWEL4qfuDE9V8rXXGQMFPRfQFRMjl84LJkHMdj5XIEog1mbs0m6acFohoYYPqTjniAQzHAX15e4uOjrt07ZUF3p9H/d5A0p+H/FqHDRu/RVoZQtbrXoEdgnJF3NE83DUcBus7RLVlTZ5Kp6VOuYSo3CljpZP2iHXXgBdcEKAoCZFE8Y3Di2oweH5lvSWo3bCeZLgeb27TQXss2XzNpZpwvYNoTENyp8iMIYAKl0cyXZSGtrUpxjalsvo9EkArZQ9hR95Xa0BxA/fFQkD1OTWexu/Ooty4QEAcigka0YCpc/v+Pm0x/EG8csAKvy9imSi0YexWbcxJ6G007lOz1TL3m1LqCKT6LpRCS1v0KoImJIEBXiDeMhyO4CIIywahNoGIwuQ3I3S+fr5JGeMhAmK59GjjmDZ225L4hhWqNRfUtQmA8cZizaBksRBxd43GszWIhxp8stIsljzblX8JpuJDhb6p1qoS0Ox1O+LI6wY8xYeRiW4TsNdEK+iZILYUUKJ0zBPuQSdPWkbWrFVoabHBqsgV+FGulBj3LYtXBXy6w5jvy5v3aJcxIDhYqrksNSiSSAJBY5RfsHh3221B4KgOQKS0Vm9m7gfECzddPzdHCy9kvAbMUbusV46P2ZJafOLYUBRl9SLgOmyyUmvQGKftT1O6v6S4callc1lxF3mhrDNN8LXTPuENVmluYVECtCAgCJJGQ1JkAFcq5K+lWpmWGdshVL+916Ucb35lbp4WFhpUZ/98eb5KF1bnqFYtCqejpeD8uZbgQHg2Gztdunx+jv7qZ3dYHx5KjaIEgU35XLb/fpehijxcXSqILGJ4yBuYNDItzpXp2qV57VvINkxsjVUcgsTS2mtjFUWcIvNAdoHGw0gOJQXXaT3KmZud0n4oR3MdNMUYvYa4InMd7lkql6hVXBBnH5hLQuGuawoSY9GZ30U9zHuXWKex8ftqQ4Iar15dpJXFGp2fq1C5oB1Hjp0GI5jwxieHaNeZqBfPNalSytMf/enn9ODxtrw3l1diCwg3ySgXoiFyLokTjcUlJtyM+68uIsK7eIZbwJE/+/Ixc15fSuvJ6Cv0raUhHBIiMuGA7eyZt/ASpkwJlxb7GEuO6noYHSjsRIKWE3kGuA+hc7Gu6MJh4g1HXZGUS+tNevu1VYZUSwQD+fe+d+nMszwWtyRUiDJiVTOaapnvPItxmuWDI9CqF+m7b6/Rg2fb9PDJtoaz/GmWQQMcwhpchFhSJZhaFsE0SDuy/lhmv3B9rXlmEcPhlJ34Y+oMTHuTUfookMlKGSi1TCYxbUTzLPWSLMwtNZkwUCgzy7ny3TKiAncJAU5wIYgI0RZH3QQvobsQAPjuty7Q1Yvz9DddONPRVFMGn95t0598sMGc0KP/+O9+g6FY7oxYwnIX8qgHLEkiCYYMxUtYFxmc6eJ0Izti16kiVgjBRfg+8CEvnm/QK2s18qLwzCI+/vwp7R31pMUSMMRyTCDShKopy9mq9U2M5RLUTjbNmC2SoKhUbCLxwj9X61XWZSVB+yAMDpakXP6PRQ4AAByFSURBVIw/mdhidFIshvvJxph4KH+7cXmBdXNJojhJcLYkBNdzBv/vf/SIPvxik466kSzj+sUWi3YuK69Ir36HvY2edh9JCtUPBE/iuZFpcXBBSVSAI5MUxYmJJqhfeWG1RZdOAUzBbez8/+8/v8PWqEcjPzJujOI4OQ3JAzjGghoOlNR78pLISgumON2JFlPzsz2kGQs5yUWIQsdi8Z4kNv4t6WYibABtXZbkd99gvQZjIOnRU0TA3p5udegvPnxCt+5tsZ4+Yf1VYVhWpcVmjt57d+2MDpY18f0Bor9+tCMERhlbFLiZdETMEFiDmyrwtABQ1LeEYCa0yqd5YW1GPLhh/+vHt+khQxToC4EoRBmXAWdZyF5BVE8FGZSIp+qZ04WahHOavkcovNcbUsFPTB2xKQ4n9WCAPdP0p+of1LT4IrJv3VimBTZutq1JJVjOB8+O6cOvNun+sxPGsT06OmoLl9cbaFMY01yzSt9+c+3MmrCXWw8O6fM7O+yl9FQa0bNRoqzKKu0FcdNSeineE4CpJWXoXUU4p1TQZO9xd0I//3KDfvBX96k39MVC24bT0+5DAzooduMzvqptQvJoc9pnI7PEHKIcSVmdiG1aDVDzMp2Gotdwj9QR14izVkrN6vA0n7y+0mQpAXbLGQIQPdvu0O//8U2GG0fUH0XGl40FScB/XWo16d3XFgWKpRwnofYgor/+5CHdvLvFEAw6ToE8Ekmi4kItHiqXiuSeqfFgmQ6mgRRwv7K+TqvLaihQW/wXHz2hn3z8jEFxV9C5dapaU/WFOu7AW7MICHzYgnoP7A8EfOqd/mRGPBMTTIuINADgCBFlXUwc8VVN/C9O+4DhncTin0i64J0bizTHFtI2HeqHJ0P6/PY2f21l7a/pPgE7UDXw6tUVevfNVVl3aIoYcX3yiy26eR9c15V0JLAnVITtOlkmDj41pMZNb4wPo0YO4R4s7gKfJoAxEisf39qm//NX92jvxBdj4EuTConTDx0pyj5Ow+6zhUbTSPGQdI/bs7zFKXgSmwiKVFo6GtwEEbGOyaQv+g7RjdjoRM3aa2IGngSK69+6vkj1WsG0vTLXbZ3QZ7c2NeEUadZf8CBye0wMFGO+xXBmqVkR0bFNoOKrB8f0x395V/ImQCFpWTB+l2biYOWBHfEk1yIt55eeCdzedoQo6Edtsuty7+kh/fCDx/RgU1uhAjbZ0mlDiaTu1H1xUG1hLKuSRwTYUWM0ZsupVtMS65oYHadG3JbocZqSTNvyhXvZ0jlJkpX9K7Ej4Sb1OxnELxTF74a7hWs0Cej5Toeeb58I8eR+/JVni7qw1KT5Vpn+0Xvr9N5bq5SjJEu+D9lj+u9/8jV9emtDUgkAxQlC/swoLh8eoZEGOo/3lCuVNIch3BPHwppA8QDNhbLNyreiiZlnh/TV3d0MywnWSWNrsSZVLBOmkRYpSXjMOEuCl4LFwqzO45uu3sCXMNjE98Wtg/FBWS4wpxaIW1m7k+YndOjC9965cKa34xlb1vtPjoQA1UpBwlzVkkuvXVmi116Zp9dfWaC15TpL2aykA/HDjZ027R62RechrteqLrDxywnIT4waiplwQCWQDKzLzZxdmtWkNWpFCRHde3JIdx4dsraytdKJqRaiWtPXXlxY57SBWHWfgtxYEsgzHrSMqEbxWbyYXnjuCRukk65WulMyS1NmyWcRoZx4HtC5yGLlPYv+IbtiKdfhQmQbrQsIZsBH/f53LtJ7b58XLOfONMeZC0n7G+xFYV8IbFgUUjCZCuzJalQMFEtrnrEsN3WsswJpJJL7IX18c5O2Gct9fmdX5D4xPV7skmjW3ISiT1dLpoYDD0sLeiwjvralmXbUJZ++oI8OT0a0yX4yjIl0/oh3oZWhs4MxutNWnYpavTeuopKhrjUu5ppvFOmf//prdP3SoiTss6abrOT25QtW+M6DHRoMxnL4qHMB+LbIEy9DU5ie/A4tCKEMa3DJTaMFUqyIvTOYHYxH9Gc/fyQRhRiV4p4n+g2uEcQ8rRZNy1vT8Hvq+0l8n0UPacLYQAwo90mQSISXrs8WjkLBn3z0nA9pT352dYaHECiN06WVCRBZNM1A7zWbefr2W2uSaUsvMPy1S0uiu/Mmaf//uxA0/errPfq9P/qcD28kER0krsQoxbp2EA40kNeh4oKxFjFJ+FwFg19gh1uGr5BgITQmo1kvSVTfJHCjWNbzTlH7wpgzJDiJas9TnYiwmMgJ+FOD06SiPJIKADR5uabC8cHzLv3og6f06e1dFlnfNL6oByER7wy+qC6NI+VarGmOxfL7b18iUQSpimBa5QpowUqkIe8lDos0pjhigj3dPKHbrJKe73SlyuoR68ope0xREkgqU9xOk+ySsjdmL4TCpODHKkijMzxwrZEzHevQ9eAsoP0oGEj3dMxIHoFSr1CREwnhWUia0DNcQqb0ApvX1CA4TQOTriBzcCGiEUgV4mEnvQn94Y/v0adf7zOnxwJAJUAkkMYR7gn58NJmPURQsE4YCVSIXmO/e7FVoYFJI6J1C5wGB7/gnOqNSzQKBLfyCfp5mWD7RyPJJ2+y13HAXsRwxNgU1aAmYxhEiYgo/FrQZyJlGIEJXMCXL5FXrAFa2RSa+hEp27dzs9IJaeDSKT8pTEhTcdL8CzAbRWd8SbC1lKmKU5+TELdlaeH0lI++bepQPr29I/ixP0kkjO84OopJ3brENBGrKkAiRkpdYWn5HtWFPL3z6tIZrvrq7j712WJfvtCgq+eaVGZpQC3LzkGfnmwrdNk6GNDGwUSsOlQSIubaOqrPAzzB06ULSKMm4sH4kmhyZJ0hc22xWhRr7aY+rWVpdAOcJ9lw15XY2Xg0lq6e1DC4LOsJ2sz5IeCWIJnqRo1eUilKJJQuOi1LClUk4fJkqy1Y7Kdf7gi2QiUmSSYukBBTJIsN5NlYA3prtexMuQlBH1Sevn5lRrwBc869Jz26xS7V6mJJhuLUSgU5qKcslrce7LEVbksfGYwRmSqnONRuSIhlvojO8qoMhkDiCd1DMDQI9cDLSXvUVtZWZRgFsnCuUNhk2207luqjEoNjEBTNJPg98huBJEw80XswAnnenPSxIijJBALnugaNB74q+rTjRlxbo5zvP2vTJ3f26eE2qp8cqX6HqHo5bcAD8XJ8QAW+vxwA30DKuixtZ1poFOgqiyx0XuqpPGGdhdlVR+2JdFp+dHNPoH8kvi9pqyjiXXARgc9ythnvoUkp8TIkdzIR4qXN1eimxJEBb1ZrNUOjWXuEKxmyGHXABrvwwhGCESjCrF9vNgSeIH+bdgSBiKn/KWkc1z0juiB4Ks5SaWTbRp8y6N4a0n/4vc+1FIN1ZpLOJHC0JgRkBiAdD4fCtdB3pXJZQPZkHNL6WoO+dWMls/Sgzucs/pvbBwKmcxLYTWTIRBoRF8NjkjnAoNp25WhNIWJzvF4Qzfa1GpRRrXS6y9AG4M0oJ/V7CH2l+4TRkoJuSQIi44/Qe6LuWmRQPBYPy4pAAHpeRUekjnqUZLmL1DJJEB1W04iy+MHSmZ0TTlVWxCZ0g8iN4H6+6crG7xDq0vidum4IKMCyO6y0L52vMRxp8GvaQxEwvPjZJ08ligL85ZgucPUEXIm8qMApFpVIv8QHVafmC54QCb8HiIYuW1mY057akyFt7fV5nYG4pbkkJ12cUaI2wZUWIun603oQOTVW7o6tSQ5ZDMt+RQa5ODRiHYiaEymtz6ZKJBny1ovhZaFk/GXSMlvGDoAv4ObxiBV2NJlBAWC4MDR5X1UF+VxB/i2tVPwVh1N67VKdLq3WZ9CDjcdnjNEmgRJokV1KGII+60CIv205xl/WrN6l1RrN1XK0xP4teobR2lAo5FgkCxKBhpsnnZdm9Ah06Zf3dumHf/2Ido6mIpXxKcZyESXQKk/0yGotCDOlFsvYpkNa1JIif+i0fn8gxA4shji2VpBrnCvQEDzfIecV9RBcrW8jU48n7o9lug3BodiYpfenJDaRbMeU9etrw35f1MD6Sp2/ajPisdX+gq0s5vL9m995l77z+rLc+w77tpiJAhdteaHCRCpJbSDcOFTDw/gg06bt/mAdnVR5GlTjVcQyf/Xb6xJh+tMPN+jmwxPJo0QSjufPIAskFUIYI0Sag0hl2zLJF22hmopOSUND/tTPgpNkfGLFd44B1do5CcAMCBBKQ+Ak60TUAVuJ5gaY2/Js6ULThQPVACuPCgYoapR6ldinXWfOWZrT/DGQAXzhz5l4i+z8f5uhy42LLVnH0mKF3n5rVUL6ReYsEG3mor1wYfnhy/kO0d1MTISf0JmE2VI47IdbY8NsNqytK0FHKaZxEWZRZZ9GmKXPgjdRZtOPvlc459VqRTqFIkSUTT+DGB7j62pWTEUawdG8VxZxQEhHgDIAqEl5RgyevUJZqqmm9kAOSeJ5aLALtKgaXHptvU4XV2rCMbgw2vIeW+4OY7t3Xq1KMDSdc9pkMaywj/vSpeep7QzfUN72N10eW+eLK1X6ze9fpN//8TZ1emORQNF5CHY4otCB7LWNXEsWtJim3+tlbtLa2oIU+oHYT59uivznTLNvHGlpvqQuTSJZWs/ZaiKs7uYqwkUgKqoAAH7hhSCth+gsmaQ57uOaivQ+H1iplNdQ0lIti7L0hgF9eGuPCZGXhr2I9Zt/KuL1TbSxQhOmOTWJyWejd9AdCxcftYcSzocuRKDGMevHBci3vFBiHZkndxRoVargK0RlzeMQqCwyZ0l5ve+L/nGFqBqWAniF24KKooWlReHGXrev+En0mS39GeAwWOoy7sUEG47GJtKrem8wHOqB5EqmzjcdbeRIwqXI8CTiQ8Q6cjmLzi1Xpb1BfEx+7/bhkL58cMQg3abdI0zDTWhqCALEmH8pV0fUZcuMOaRIXg0nMfVGIZ3wa1vscSCMdXA8ot/5zTepyQYlb2XV4XKgPkOcext9div7TCNH8rkSCIPRkGBjGGc5V/i3eF0DmjrgD/pq/+BYFDk6uIvFohADxBwxkB4yQRA1xj2ABdORQwijT62Jifc5mX+MK59X8cJBAV5Ax2pyeywRXnQjXVorMXyoZCILz+HWo2OxhjiI495EmwdfuDAB8uBkKh7NcOLTU6nFG9JxZ0x7nYA22YIeHp3IwEVAlNZcjSrlvIhpWnUuMwSlLSugT+8cy7g8GYqD9ALEJ618DCxf4vyx6Tu1zISHtDdMChpZwYeWYjeEKcDGaAoGCteEzkDRvQlqyjwSW2d/koEmMmMqZ4veA/gUImJSj50OyYq0wspSf/e1iw3pa8MF2LN3MqGv2PJpsaRFvXEs80LT9o60zeGkF9D//PNNerB5Qg839oVj0xBWHGkkHPgTA1sb9aoUebZS3Zm2SADKMfMMmK2f7gx4UTpRSCpDpWVSmpEDqcVzmSVx6upheKLP3ETrTMQxN2FwJUhaEERCwGarIbptNJ5KwZDkPALlDgWnidTqgSulXAIwSMaxKRfi3xgKGEvcTpufMdPl+nqLGhUtLkQK9M7jNm0ejIVT4WH0RxMWwakGKV07C9b2BxP64sGOtAokBptFUZLVHXp8oLDGMvWRXdI3ry1QpXiq49JIPlKXP711zM+IqFbPy+AKqDBXor6kA0ltyZOqq5TPQyF6msuN1RsQFSABwkSoX8RMThmkEGhus6QTxxzMpGPxnBqHWlqsjGsnVZzoKDQunYSibB05BIIWSkXxCjBrANDg0pLHoLaUVWlt7A/o1uMTExpPu3OIdg5HdOV8QM1qXvYg/jeD3lUWRRBPpMK2tW8Q6IEPGeEuuKK8a1n/debwkhm2I9wnyaupRLpvPtDyXhA9xbvinnlpQWCss/M8uGS5nKl70yk7Eq0zoakw1IoA19Lp19AZiZMOd7GpwMbEr6MgsWcG3MQSZMBR5tICadOiKro172mGq1CQtUyllk+jGdfPN2muURTlPGBO2tob0fYJeyNuQQZUgzsRQjruoPWdubWiuRZY/VwxoavrZfr8vk4ZL5TrEgEuMuwCzpSRTqhCYGOzvtKgxVpeJoxjClscItzmyBjjh0/YuOXKNFctCk2AgzXoCwc3p4kN+JeYZOaYKk0A4dh4H8CDkrPgTaAIJwx10qHoGQQ+JbTlCtERSBBxtWf3xfzRtIRNyteY2OAytB7IsFbPzEMOQsnkTRH2Z+C+vlSV4Q1IymwzdyEeFyV4LxLvea3sdgK6uzWlX+qFtDpviq6lV82h16+0qPZRTe7dQo9FwVO9aAIL6LT0+P6/8maTgbhNZ+GyRUeDiL58hjlWZclrZ2XB2C8sZZrSg+hg1C24AqIYpuMjTWWYawqAQicdZB9pWNq2Mh1opyVqti3FiPh4zdW8xGQ8kfAWjAkgUpGJ1+uN5L1ItIDTZCymjCDB5126zF5Fga0s8qdPhetQo1eUAYnon8DCisy9x4OEIcjZ1CaGTcMref36BelMAsegqr9ZYT/bDcVi1nmNlbxFb1yuSJR6RjZLBg4+2xnSMPKk+EiiyCbtiMSSCz0FTko372dzf9I2duYqsk2RtZn5acTXlh6IZNapbbJeSRBp+X0ya/OUGJ3ExapZ374MPLRd4cap1N9FomsS1xF99fbFecmG4bXbT/t0HzFAC94O2qsmlCCaLVVSnmDFg44vNYPNmh4uiNOo5Oi91+v8/rocLLi8VsTIJp1dWi/xIbJnVa+80PDC+zjqx7Td4YNl+ISeEsCqSLKGrmbV0siJcFQYZrlbV5xmVeqhmcjvnhpII45xLq/ZpDBN/JiauYkvSju9ikWTKDYQSGZNGQNQkomx2rMPNSEV672EKoUG/dNfWRG/9Nlenz6836NuUKLltZYQu9sbiK+tI4p0pPnhMGJvIWHizWgADv7lNxpUZhGO7bPtC6lBdZMXX1XOm8QO9UJXLatIaGzC8a6mHh1Hza4pWZJ6Wyd0RHSzQSwOGf0Wy0ZxYU4UbiDV6KYPN3XqZToOUnMokgk0TwCfOWcrtBHCGxXQGw7EYNQYKtjVskz3QU9IrRDRm5db4gl89TygTtyiStOjhfk54aBKpydrwJLBtTiLE5ag3TbR+iIG3SQZdepFKSih4JvTtt+YzY1MBb8WaybaLOM6WZpV2rUs15NqTbhW6FjxEMBk7yEwI3O17NU2IyLDrNg7CM1QVVNdBRcqtdioGEUJFsQQ8T80vwGOVFi/gKjQp76vMUHABfGvpUggEUKWC1W6NKc49e5uRL1kgXIl7TFDT7DFFtJDbTK7cMhseVKGpq2cGwcRnWtE9Ma6RS/MC5Nx7C+1FCMZ76a5FwXhYBT8UZJ+AKPkyV8+gGEFhtXCqDQMD380SbKBfvBjXd5kgOySgOcki+im4o3v1aqVibO+5krYRrkuNB05On9TQ/ZJNlYjnY2HE5SMfk5xk3Au9CA/Zr5qU3+a0K0dzClwWfS1QjQxrCLvT8NmIOJoKMnpEybm46OAzi861CxbGVH0e6KtqKd0cTpSDhdGW7b7Ie21mdOHNh0NeV3oSrJdA6MUQKNrSDwML2F3yillZWa40k4ardkxQw9iFbd0ZJD8HJuMG9wpMyISoipVnMaISLYqr5VOrqs+IabygGC+dBtpWX/aj4aWeCSf93v48zPMPbmCKGvJsEWzEW7Qn3AVXZMihP7NF5BYd2mzPaabGyF97wr+DoZFx6z4h3wQCAQMpxENJgmrA3yP+N8WH5IjKdfEjD7C5EjgRIBqnWPlGsaZdbYjquyW/G0GXJfIZgyDJIuN9KIZqJqYE4qkZjiRTYJYGuJmxW9uKB1DYWRm0ak5TwOkypVaYSPEdTUhjgkWWn2kqbXI6Fi4XDZb1C12w4YWu3tlV+qSQSwrMoTGYBmUrZlxvulhWkVEr9EWH9GdbcaJvCYMEbq3w74vY8MeE9GPTRGRRMsRBGFE4Wr+2bK02t0xo0Jg1FzbyXI2aR65UGAGKKIPY/yULI/ZvrDONywRii9kWpijxdqWpd2NmIZtm4U6sRJDpx1qeD00WA+bkeoik8hxncC0OBmf0kzDAASqpH8yhxc0jEfi3EsXEDyOhAEpmllMqQWSlOl6JIaYc7OSJ+V6bXR2jdvXHw+YgJEUP44CrTYlp8pQR/JhlE7nSQucrBxlExvlPjlXXTejqmIz6DCSlisYTt6bNdpi6rJzjImJ5XN8qpoCxEky2NKwEvrdrTArri7I9BvbuGqRgkdDPAGPjokoyxAuXaDlzMaIRCYQgO5CaWIWUF0WrtZh14jSeibaE0kaMC3vmk41jJ9ztY0Tn0nzxRL9jlE2S1lSaYQghqdpUoBrx9Z7aoGS5lEs08GUJu3TMb9SseqoGksPHSUgtjXiQ4W1BWd0vmCoEFOxEdJxck18xVS2dW6dLRk0GUgfhGJ5ZAKtcc/MO7W1EsQyltpL/wRNpPnYFBijPUpGjzi2eCmYQwqriyGCvlQaWBkuRN2K/AUA0pgiPAshmNGfCh8SShN3jmDInOCyUKqsVEwlIJxYMkPGkfCYleFZ13FMAkvvkcIo12UIlI8E1+EAYWWHA/ZSGMYs55npCo1Vaj/9iLqbX7DA8k2Xr4lF9FNLS1qygs3CqfYD7Q6S8eEuXKN8VvoFCciZWpY0nyA6klJs55gsGpm+20TuiSyVlHm4gfrZsZmMZtoGCkYCwqmCcRgc+Xykg1XlvuayzZ+MQCwwHcdumedLAsvMD00rr4zcS2AX8AkXxFVEWDKJUfYecCQA/7nSA7r9i8d8z+Y1avKxdJ58SL1nH1Fy0qH8td+V2pLIFGoLREhmdXKKpWc6Qxo6XP0LBGqFTR8FMJGbGChiZQsWKy74MVaFLFApykZj2oZAQeDJhkDQKFQYhfvgPenf1VCQn5OmQy3cMQXcOe0A1/hjokNdMcTKRExTL1ZF1xKxTPtR0rWShUi6qglomhyrt2XvJt269YR+cfuY3LuPjun65UvUvMwm/eH7ND3+oYiK9cpvk1OaM43GVqaslXvMH5ND5NdYIdEJSdpPC1E1xLJ1uIg0/Jo6NsV4aZwvkXb40NQrCwFzrhGnyBQ5Rqb3V+dO6XiQtO3AQBeEySwXrG9Sg5E55FwWKcch2KZ6VQlnnHjjSeHA0sm10jWeVDJQHU+7NOzcpL2TMd3++oj6fT7Ur+/uymFcu7BExdY6Y6cx+bs/46eypVv7NfLq52TGQJoPTps94qwq1DalrunrWuOnltfKQuWWIawOtzFJLPjB5s8tqAgpJwlXUap/TFI9SqPX9kucDOCby5kQvG3aq3w/u5+u2zaGSLHcmUlEpMVArglypvdGvBAVFNP+Do2Ov6aj3UPa3hlRp6tjk9z9A8zO22Z9MkcXl1+jgtukYsT/Ht4kr1+kWnXILH+BfEvbqCxTWYCaFpnyYKcTKBLzM0lxIJnRGukChaMsyxCOuS1RbpJ6PH7RsewZd1maA8HvoLdwUBhwCLjiuKlYOZQNvmdxKldyZhZeqFaSPNK5BBr9znueufes/DebYwXJMENik0xvxuQlHbJD/Amw57S3+YT29okGwzHrfwOU4Q8eHPalHngSLNPiwgVqLMxTtPU+uf2PyT7cZZb9NkWVdxkLVWW8ZTprIG1SljC+nQ4n1UDC6dM1GjcrmoyyriNLDExgKkZVVM2sTlOSAQuH34sVz6VZ/xRTaiKm3pinWp1oewv9cQOSIUYmmSSxSkunhuMeUr1FComyjFEC8ddCdXFT8aciMBK9/5wmnad0sNel/YMpE07DWHCF0eL1fwFxKDIZl2M9wgAAAABJRU5ErkJggg==;rounded=0;sketch=1;curveFitting=1;jiggle=2;labelBackgroundColor=none;fillColor=#A8DADC;strokeColor=#457B9D;fontColor=#1D3557;" vertex="1" parent="WIyWlLk6GJQsqaUBKTNV-1">
          <mxGeometry x="290" y="43" width="79" height="94" as="geometry" />
        </mxCell>
        <mxCell id="35jMkJhGXixxvMOsPopn-2" value="点击开启" style="rounded=0;whiteSpace=wrap;html=1;fontSize=12;glass=0;strokeWidth=1;shadow=0;sketch=1;curveFitting=1;jiggle=2;labelBackgroundColor=none;fillColor=#A8DADC;strokeColor=#457B9D;fontColor=#1D3557;" vertex="1" parent="WIyWlLk6GJQsqaUBKTNV-1">
          <mxGeometry x="160" y="70" width="120" height="40" as="geometry" />
        </mxCell>
        <mxCell id="35jMkJhGXixxvMOsPopn-8" value="" style="edgeStyle=none;curved=1;rounded=0;orthogonalLoop=1;jettySize=auto;html=1;fontSize=12;startSize=8;endSize=8;sketch=1;curveFitting=1;jiggle=2;labelBackgroundColor=none;strokeColor=#457B9D;fontColor=default;" edge="1" parent="WIyWlLk6GJQsqaUBKTNV-1" source="35jMkJhGXixxvMOsPopn-3" target="35jMkJhGXixxvMOsPopn-7">
          <mxGeometry relative="1" as="geometry" />
        </mxCell>
        <mxCell id="35jMkJhGXixxvMOsPopn-12" value="YES" style="edgeLabel;html=1;align=center;verticalAlign=middle;resizable=0;points=[];fontSize=16;rounded=0;sketch=1;curveFitting=1;jiggle=2;labelBackgroundColor=none;fontColor=#1D3557;" vertex="1" connectable="0" parent="35jMkJhGXixxvMOsPopn-8">
          <mxGeometry x="-0.3333" y="2" relative="1" as="geometry">
            <mxPoint as="offset" />
          </mxGeometry>
        </mxCell>
        <mxCell id="35jMkJhGXixxvMOsPopn-10" value="" style="edgeStyle=none;curved=1;rounded=0;orthogonalLoop=1;jettySize=auto;html=1;fontSize=12;startSize=8;endSize=8;sketch=1;curveFitting=1;jiggle=2;labelBackgroundColor=none;strokeColor=#457B9D;fontColor=default;" edge="1" parent="WIyWlLk6GJQsqaUBKTNV-1" source="35jMkJhGXixxvMOsPopn-3" target="35jMkJhGXixxvMOsPopn-9">
          <mxGeometry relative="1" as="geometry" />
        </mxCell>
        <mxCell id="35jMkJhGXixxvMOsPopn-11" value="No" style="edgeLabel;html=1;align=center;verticalAlign=middle;resizable=0;points=[];fontSize=16;rounded=0;sketch=1;curveFitting=1;jiggle=2;labelBackgroundColor=none;fontColor=#1D3557;" vertex="1" connectable="0" parent="35jMkJhGXixxvMOsPopn-10">
          <mxGeometry x="-0.0583" y="1" relative="1" as="geometry">
            <mxPoint as="offset" />
          </mxGeometry>
        </mxCell>
        <mxCell id="35jMkJhGXixxvMOsPopn-3" value="柔风抱暖" style="rounded=0;whiteSpace=wrap;html=1;fontSize=12;glass=0;strokeWidth=1;shadow=0;sketch=1;curveFitting=1;jiggle=2;labelBackgroundColor=none;fillColor=#A8DADC;strokeColor=#457B9D;fontColor=#1D3557;" vertex="1" parent="WIyWlLk6GJQsqaUBKTNV-1">
          <mxGeometry x="249.5" y="313" width="120" height="40" as="geometry" />
        </mxCell>
        <mxCell id="35jMkJhGXixxvMOsPopn-4" value="" style="shape=image;imageAspect=0;aspect=fixed;verticalLabelPosition=bottom;verticalAlign=top;fontSize=16;image=data:image/png,iVBORw0KGgoAAAANSUhEUgAAAFEAAABRCAYAAACqj0o2AAAgAElEQVR4nJ19Z5Bk13Xe90LnND1x82wGNgALIi8CQQgCRRIUJIqSWEqlslV22T/901W2/9uusl3l8i+XymW7JJlykZQEiYSQiEhwASx2sTnO7k7YydM5h+fznXtfz8zugJT1thoz0/36vnvPPeE76cIJmm8E2HAFPRd9ed179eFhcbGAP//+W3j73bPoyd9PP/Eg/sWffB3bt+U33Ts7V8Cb73yBN3/6Be5ML6FSbSAIHAT9HiK+hz/6va/iu6+exJ5d4/A9R0e/9+p0HZw+exPf/8F7eO+jS2i15U03Btd1ZSwzZcdxEInGkM2kUSqX0Wo24Mv4ricjBn1wZNfz9H7em0slkU6l5R4fsVhcxvLQbbcQdQNkEn2kkn3s3xnHAXkdemAU6VwCgfxbXKzgR69dxvunV7BY6KDfDxCLR9HtdPV3Hz1n0+R1sXDuW1Qgk1otlGWyNZ3Y4185jN/5zrPYNpFHsGEbzp6/hZ++dwGffHYTiyt1+NE0IhEhikzWl1++/uJxvPziQ9i9My+LCaBfDjbtIy5fm8fPP7uOjz+5gguXp1FvdOB4MfiyaNd10Ov11jdXNmZtbQmdjmyrF0E8kZR3e2h3WoN7otGoflav15XQnufre1HZAN9z0ZQxiuUAHHZqtoGPYg6O36zh5ONjODCZw8hICr/+rSPw3Mt485MCVtbqsh4S02y+fx+1trj48Klbi3hDuOvO7Boef/QBvPrK0zjywG6SV+8ht31x/jbe/uk5fP7FbZSrHaQzw0K4KHrdnrxaePH5I0L4kzh0YIcQdvOje70+7i6W8Pm5aZy7MCubMYXZuysol+vCRZ6+er2uEDGqnNTtdnVj262mWYgfJWui2ajJjPpKbM83z2i320IwB8lkSqWh2+2g1WopEVxHOLvfRbcXCPcHKFbNfK7Iek+dncELJ3fhV57dg4P78vjNV4/LvWfxxilhqFJD50wO35KIZH8+uCxcd3ehjKvX7+LTz6/h+o05HDq4A9/4+uN4+Pg+s3iZyOpqBac+vabie/3GgvBBDLmhCV1EtVyQnQ9w8skH8Yffex7Hj+5BQkQhvLqy/WurVVy+Po+zQryffTqFUqmFJuXX8ZHN5mXRPRHnLhzXF+JHlXgkotwwIBR/78tY/IzizDV0Ox0lLN+nGmgJsbgR/Myohf5gvcEmaXCVOUqVFr64tIxqrYOjh4bxkIj4d79+UAh/E299BiyutlQqBkTkrjQaLVQqTRSKDSFeAdPTy/ji4rxwx5zscBFfOTGJl772iHDgHrPDohMWFlbx7gfn8ZM3z2BevsMFx5OejFXTCfc6DezeMYx/9sdfx4njO4QjvMFUyb3k8FMi+m+/fxG3pteUy4aHsti1Y0gmm5N7OJ86Yp2+zNEVbumK6LaFNq5sjnBnv7dh8aKIhDixWEyI66oK0XvlPS620zeqIxRDQ0DDtUYo+eoPpIu3rRb4/AVM3SliebWO47tiePnZ3TrmO5+uYm65Kd+y49VrTVy5chuXL8/g5tQiPjm3ikKpKZzSFV3gYXQkg29/4wk8d/II4vGIEvzOzBJef/Nz/OCvfqYKmJspG49GvYomakKwCPZOTuCl54/i4WN7hYt6gwlSh926vYi/e+MMfnbqur47PBTXMU4c24HnnzmKsdEsLl+dwU8/vCzPWhUCApFYGs1mUwnRbrd0PHIV/3aEGBQvimuv7+ijPBFzErzbNcQM+oGKoRfwXiEoVYQYI0/HaMvGGC4MRArqMjwJH495srl9vP7uXdzaO4qXntmGl158AK3uLbz98RycYMFY56k7s/jLv34PF69Oy5MzqhsKpZo8qIeUKNp/8kcv4qUXjmM4n0G5UsdnZ6fww9dOiQjO2d101RxxIb4vYiYMt3vHCL7z7afw6jcesxK3zgHzi0WsrJblO44ukkRYXavKq4xHHt6PXWJ4YlEjKOcvzuBP/+x9nL80J3ueUeNBnVYqFYUgbf0uDQwJaETT6CrOiZMKRZtAwPMjysEkNDnVEN9wtas/ffM9OMqhnFs04oAaqNXsiiHK4tGHhvHiM2Ni1bt454Pb6+I8e3dJFlVCtd5HTfRPt++p8qdC/8NvP4mXnjuOkeEMlpZLeO31z/Dhz69gcvcYvvcbT4jor+GYGJlUKo6x4SxSmZgo8ZjePzyU2krtYtt4DhNjOStTjhUtDPSV667rqH17x/DNl47jszNTwhkekgJTksmkEqrRpMWtC1EcK6YGznAwEkpHJnHJub0OEqIuSDCKudGrUGPDTSDs4Xc5Du/hi1erLda+3cfEcAy1uiN6sohkwsMLT4/h2af2GCIWy2IYzl7H9dsrIuNdmVgFiUQCQ7kUdo2m8DXBg57syg9f+zneef8CKrUGnnvqQfzWt5+W3XVVD8ZEdNUiiji4oo9cj7tquWGLi5N1zAoHRNx8Awain0zEsGN7Hpl0FLMLFaysOLJhKeH4iODOKPqRnsF8XQM7KKIcUj8TXUjdrISVQTttQzzea4yJMSpKfmtgQuKaSRjxJ56V7RXRFkjU6uPGraqs2cWTjwwbIp67dEPeXMTMkhCw0TDUbzVktzzsntiO9z69hDM3p3FzekEUbVWo/6CI9sOiJ7NingPcd1FRb027TVexVMeNqQUR12mRhFX84e9+VQD4mNVLG4aT8RKJKMZG0gKxqqjVKjpPX0XTPJ/0IOeoThSMGI3HMZQfRblUQHFtWb6fUiDebNSVqJs31FW10ul0lMiO3fhut68bTWMnb2J+pYle28H28bjQoYVTZ1blMxd+uVrDex9fwsUbKwprIpG4sjoNGWHG5ZuzuHZ7HnMrBTQEYA7nsziwbxt27xr95VT6kuvU6Wn1RubFsi+vlBQPEv0//pWD4v0M30dEJaRDqxtVjuOiXIE7pBwXzkvhDf8R+wkx4/Gk0bUhJ7qqfTeSjqRXHRgXqePf9VpVIRM/6SksMh4P7yN3tkWsI+I10RviTRXBwh+cWoR/a/ouLl2fRVEwkSsYrEUkHnQR9eJoCqy4fGfJoCYZMSIPSGeGMDw8IsrWt9K2BSeCIFjGETGIb8CEiJu5n/p8Cq/95LTAqbqqAk44k4qKTq6oG6WXitq6IaIwea5vDJG4nKIozGIGqsClclOPyxM9Xq9WUFhZVIaIRkSXVcrrYzm+0X28Xw2Ib1xDNS5GDxI6qZD3AoVWxsUUPenURN21xEWMYHxUPB+x2v7PPruCtYqjX1bd0OsM9EKvR2unyFXwHi1gV7gzUL/WrlRmtE7EefE4Vgs1wVNVLK0UMT6SwIvPHVknYsSI+fzykvVEBDzHkiCZo3GZg7hmA16x+moTET13IHrhu+GiXYsF+TehS69rQDVFnj/JcSGgDn+q2yefEypxvd6GsZzAEJljkhn53PBaKbZQbXQxMpTD7m1J+O9/cgtNIUo2NyI6qrBh2n3FVDpRjhIYQL62uiq+6tp9vFdvtPHme5dEv87h6o1lzM6v4sVnD2wmolyNZlu4o4FUOi4uYVYsa0c3x/PNJm7F1+uXMUau5Rjqo664k8bzcCys4Ti9gTeiXGV14LpTEqiOoz8dFYvcaVu9aCGS+dyokBD2KEX6Pd1IGhRa7BvTFf3dX1pryHgxsXxZdNWdausump03O6MREdkI7lStVhMxrNy3PHo4P/y707h2c8ko4i8hx8pyVUQ8LkYpoQq8Xo8K3uuq7mrR1RusdPP3uRi6i/xOaGkDFUeDC7nhjqID0ZeK9dTu6sKF3wdYUmGQ41i9Rx8aZhNdY5RCt1CJ6BoihsQNuZGGjvxVqnQwNVOF31JMaHQDUXtSgGy7VVNLRvdJ8ZUob7J+W/SlERNY531dURMGENAaDujfG5hZJ4ZAhUcf3YcTD08qmc5+MY8PP7wtOkgIvFJe14kDQppnULdO7pmQecyq/8yAg4pbra3+uxFbQ6hMLq9RmnJpTVEGjQx1Y0s8HcWHMk91SQdQhtrPgGtVaTKO53iWeMbIcKkkYqvdt1xpPLRlsdK+J0q3Xa+hJN4CWTsqXsLoyAhOPr1fXg/oF+jf/vjH5zE7t6LLWhZ9d+vOAg7s3T5Y7m1xy4ij1AXrGQ7Z6tqxfQiv/vqJwd+Te3bgzu0WZmZuiy4VIoZ6a0A+8xs3OJ1OysYmlCgU6UgkotxJgjBatLa6LNCnLkyQQCKZUmI6FU8ZIBpPKJju2yhOu91UYpIZSCTlRi9qYFIfofGGZfqBOlNhV66E6t4uMSS97GNHjwiodrFnexqTk+PYs2dMMFlGsRmvk8f24dVfeQh/+r8/wpvvXjHOv08/mL6rYfFA3MO9kyOiAw/iqcf2ieXKIp+7x1upquaSh64HISYFzL9wchz/684tGCasKyc7gbsZhJM70FNuIfEMNEkK1NqtwQ6+OiKb5K5ScU0W1xEiDiMmxKsLrqSuJKZMplMqQbS+bbm/2Wyo+0fC+l5omRn5CQbeE58VEpoIhdOkISI3cj7+f/jXv45cLotkXLCVKMmEuG6JdGwwoJGlqNwTxa++8KCA3YLozzhG8kkYCBLqCReHD0zg6Ucn8fDRXbLrvhX3DRzZv98z6XeNGgiNgrk/ZIX1+2MCL7aNp61YNpDODilXpTN5jXfSj85kc8KRCawVFlGrlpQI2aER5dpquShzigzcOeJBxhepGsjJtNA9G6N06dHIhlEqXHuvuo4ILG40c+Pz+bf/5CN7raK2l+ea1xbXnt3DwmEZJVAqGd30GfVNuVwW8YrYeOEvtrPhVSo3cfP2qkzYwdSdgorHVpfR11Gjo8k54hjQu7h86bIQsaIv32+puA/lx1CteqoTSXT+zY1yRU4borqottxOR8fpqz719ZUQzuaYHTGukT4G+pkMoi6m6NlYNGoNUM/CHyHiJgL+0ssoWscOvJFOjL7cmVkUCNP5B43UlPtWChV8cXEGV64vmihOoXGPYVm/AqtlwyiMguGAUfeihR7Eew1UK2uIJxPIDY+qON+dmcLy4ixGx00ss1opDjwSEpirCfMtyo3yfkTsxICAFvpolIdcafkrtPRUbZsi2+VKA3NL8hCxzA8e2nHfQhjp7QWC0sVqb1pgYEJbd+V16eos9u0ZVY79suv2zDLOX57F9ZsLuHRtUYOdJnrS+9LvEJ+lkzET1ZbFd3wTYdp4qf4SIpMQ5LxEMo1cfkTFn2mDXXsexLZtO7G0OIfV1aWBXuWYujEWT5qwmqewq0M9yByNPI/SRlgUMl5olPx6qy8guyZ6pIwbt5dw+ca8PGhIiLh98yqEUAvzRdE9dUzuyq97ZH0DTm9NF7C0XMeP3zqPXCaJJx/dryKft6Ew5WBrKN5+7zJ+JG7fomBGeil0u6iPKEoaTlZ3zgRHwysqGzs6nDIKnhkl13BGmOfQCWm80FdMW6+WxaCUlVA50YvVSkkw6pJwo3CdF0N+eJtIQ13Fm5Ojm0p8SQutVjjo2yCzqz/poyu0ikQGHNhjTLJTh//ZxSWcvXATn5+7iTtzyxgfzuA7+ybAjNmmS6zVzPQaVpcLcHvyeddShtwjPxgaqtV84bA1JGLnRM8t4+gD2/HKyw/r13WdbRPsPHdxDjN3ywJV0go/FOCrkpabyA2azTP3hhe/H4mYdCnvVQdAXFIuSodutwbcqOFE9G3OJVBRTYkzUSoWlGi8Z4jins0r4cqFVRXtdCan95JgGk7TtKtj8acYyphnQ20kcHcQYvP/7b//cw31M3/bE0LRm8hlk/eJE3XE5etL6hVs35bdTF8ZOCbfjyeTmtn74vIqzsrmvPy1uhDx+AZmDgZ+r9LfEmSQJyGwta6fs4VqdIINfm/ERFOos/phZN2xXkxgwLfrxgweFI6hmPM9zfQ1G0qM4dEJsdBpGTdAsbCixGMaN4z8BJbjNDAh9/B7mq4lyFeJMXNRjyUIjBvDyYwMJ7B7+/36bH6pjGK5IaKa2hStbnd6qgKYtEql0oLL6B20NIried594wwIL4tpiLh1fEcIwtyHq5m/hcUq8tmEvBfBvRZeyWuDCrmhMXlmU8NX1FNu6N/SE+kbfOdb+EKCMfodiUYUGnEjKO7UfcMj48goB7rizpaUI016wbVJPxNeC9xA07Mcj7FJPs+AddGJjvU9O3LD0FASRw9vx6ED2+5b9NUbi5qd2z6RQzab2EyQXl+VbqMdRscC1U1c7L0XF7BjPIeTjx3Avl3jwtVpDA9HZNwhTAgO3DaeVbHd6goDFPRzCaLjwkUtmXdoGEJd5dkqCS6eOpALrdercm9dRTYrnkxJRJgBW2OhA03NhgC8xYgON4XapdMeRITUVSSsiUTWQ2aifXzXxtW+cnwfnvjKQTz92P5BgmjjdVmsaLHUFD23TTklvBR2Gh9IJ0q3y7Mu2VYXxfn3fuMZNEWRM+wvsE5cshbiAoSJPzdQ7L7KCNgkFEWyXC4gmcoqMTWHbMP8WjaieszkTSJCxKifUI+G3gnFmi5hXF6cb0VAOg3a6HhTuDuv44UoQd07BiZg8jW8qMN5v8IqBofJLL/1zUewa3sO+8Xd2z6RN6K6OXqu19WpFRSqonzFW0lnhEBuT92ynijYQrmCIw+Mij7dgWxKvJtMHOPiNh4Tgm9MHzhuW3/u2Z1eH5gJKXJsz9ksvYGzNRHVcxAPkgBbRDQhGxE4gYLllLh0TBu0NKUKBc0MmpiEvyNwJqUBiZ71NGhsyuLJNFptQRaLqvs4RjKbRa1S0dQs4RztRKVsgrrU+zQsVCHtlkml+N/91glsFxGiS2Qm6t5XX7SwXMLCEgftiv6IyStiNT8nz9ToEP7gO48IpBECC6w5cvJfmi8u/2gzIZwtdodX37s/Sv4lDg91KUWWhCFfc6H0YzVhr5DHeBKBBcNUU6XWihpOL2I8D9WP8n0SkXioKNxIrqtWyiisreqGpNMZ+TytxobPMDixoa9EIq2cGMYx/b27R7aeLWC9iBreP3VNKxFoTSl28di6qDJkdmjfuL7+URc5bmtPb6ubNW4YiPtGXUYjxtQqF838kC5WfV0hZpf30oXrmBISEi6I2rx4dACVsiLCvhicUrEorqKJkzLGSP1nfOuIDYU5Ax1Pw6mcHM+ZCNK906S1rohnUhBQfVcsMr2Ltz+6It5KU6MyyXt85i2v5R9iI8bb6qI1bzQ6IpJdeXVQq8ur1sJjD+8Sy3y/VafxqtbaOqxm5tomos1FmsSVu7k8pG9gCnV+V3GdcRzbQmhypUIb6lK5J53JipWv68bQf+ZY9Ioq5ZI1kH64h4h4JpapZsC+p5+228ydyGIEL7KA6ZL4smcvzeKDT2+pOPJhna6Hw/vzGBu+H0P+/17zohpm7xYxt1DCrLymxRO6M1PA9FwRr/2Pf6qeyb0XN3duoaiirJk+rOdReIXWeT2PYgweuTWiVrdpSkmIKwXLchPoFkZEDfTEtRsZHcXa6op+1xgqG+7aUOxk1AUxZ1qtM0VbQ2ikJ92981fu4tSZW4L5VlCsGMdcC4H6NrvmmLA4NuSPKFqddn9QRKmOvQ1c2ii8ir57T5DjP/33j/D2hzfthAlZAmsJf3nsJ8x7wEaeqZsoXr4NTChQd4yvzfGaTeFYum6afDJ5GZ+fi0roCRAnQRnejAkH5vLD4r2sodXrGNfSej6mpM9TTu7QL6d4M5lHvQtyYi+Jn7x9GX///kWsFOr6QPqzLATiK8osGZV1UMdQTpRxlEUpZqmFQgPvfXBbOKuAHRPDxEu4MjWHhkxibqUihiaBf/XHz2PXoJLWEJPTiUQCjbz4UVMOUmfehvqu5+qLNUCbY5GB/hm61UyfssoiCDqWkIGKqakW0ziTupma2hDCRbxACOVjcncejxyfxN7dY5i6s4R3P7qmqqrWriOZGUIvmxHYU9Cd8GyVreEgR7mSIzN+qavxjKHyZ+bX8MnZW5hbLGrFVSQWV4tlkpSOWrFuIFaJSD0e0YqwkBgUsRu3F/D6R1/A95gT7qMu77EUl17n0YO77qn7Cy8TXtdNiqeMe+VWlct+MRc6ahg0XWANCL9LdEQJoB5zPd/6uwZsx2NRUMW2BcYcO7oH//xPXsahXcOyLk/1Mou0/uf3f47Pv7illjwu628LVmQ+PLCIYWO2jxMnTCIJCOQJz/x/8x//UjDgggwoW+wL8u/btI0F0LR6HQ0BiSXLJDYVaBbKdbxx6jJWxRBFxDl3rC/bqnVtBu5+SEOQ3bO5bXIiFXVTIIje6/2iwl0LqVjrQwI6zOKJzhKxFDOgaoGBXQ0WiCFxBb8moi7Sgg0b9bLc08PISA4PH9+LxIbqtNTxmHJtTOb/yekpMTwdNVaMFdDQkID0UCjefVp6cijrwrVISjyYdgP++Wvi93YDFWH6mkafBTqprhZUdlV3uIILs+nEAN5U6m1MzRaxWKhqBasTScAXL8GnHmJWsNfQQgDWIW68ytWWGjJTy+SqSIj8bkjHb30xOFKtm0VFZA6yDsTFY6nXa2JgLCHpz/aNZWaokbHCtLh47bsCSVoN5a6quK6JzHo8lFnEh4/txpowQkXQwdlzU6Y+nNDGRmxaofgyos0iVq31NlUSkM3yc8Pj8Cp015oGiApIitoQOImo1lBTJQFGh+LqkfAifrwgVlyT6BqjEx3FwknSxDXJ8bY8sFRpbCIG/2bQAoNKBvMid7EAKSwmuvfqyFgF1klTRB1TZsxyt0a9YYgnc3WF0G40pUkuGsFUNqdBWeZXOo0yZmaX8bc//gTPP3EIB/evxwfofj564oCotBIWl9Zwd74gaxZVI8/o9IzOdV1bYtLXvAEyuQQOHhhXteBHEhkk5QvwTZaN1VShc03vmkC01+8gK97IhMCbVNwUEi0tV3D63LR6dZ4bVWtp1s+aFvm71xZ3qo+C7DBrr3n1g7YQfkENGDmrTcjRqhuPQ55z5OCEiLcNsN4DwIVZZYOJ/VryUUS9J+ERwZRkvZYYhrYCf88XN1CsdU8kZ2lhAQsLi9pmwbXfEUPy2k/Oolxs4nd+Q9YjnppnN42w6tjhHTi7awyzs2vCzS1RX3Gk8hlb820SVlQnDFofP7YdjzyyV+MMvuYIhHWj8ZgxJBqA7CsGo7NOGNMXmLNn27CG50lAtkTcnlnD1RtLMllXwazTZTrRUa6llSZxqWebYjUDN6pGaGZ+FW/87IbseEVFsFmvosvq/z7dyRQeOZRUK0rdqpnBDSnTnozTqJMrGHxNyHcryA+nceLELq2dvHhhTrEnrbFD9SBEDES6aOQSstBEmkZT0IWI+O3pVa3YYFo4zJkIz2FyewpPP7pfvR2OuWNbDmNDQwOX1I/4wrVx7N0zioce3qFurn7XtCoIlTueOvccoKfFTB2m4jXXQGMxJOwbRnem7xZw7uq8CaryAVr5IFhLdCMxn0P2Z2RcE+U9JfKNO4v4i9c+V524c3teP+trxb/BnxNjeVnA1t4KL9b6XLqxoL+zbpA+7ZOP78bv//6zGBZY8vevn8P/+cEp3awYRUzWRMgzPj6k4bWJ0RTGxnIYzqeRScWwb/L+OkjO64++d1Jf69eXGTtn4x3OAMASSHZsMbn2hRBQtk1N9N7dw2JY4mpV74hncfHqgh3LsQkbceM6QjqPnCnegxNBrdnH0mpVlHkT3/+bn+Odj2/hv/y7V3DiyDbdaQZ5l1drsmgfBya/vN6Rho4q4OMzdzTdqfU4YghZaDAi3DQ2lMW3v/kY9u0dxy1xHHZsH8a2iRz2y98b0QQMQ21dmbvF1QvzPRtJ54TFT/eQWWvvRKTbXVNYFFZddcQq011iwGa3sDYjNBXxX2+KOEyJOFOvuRtigF2NoBjvJZCf5WpdcSS58OL1OeWg//vjCzrO4X0jyAlkGpJXWNL2ZdeCAPdT5+ZU19JNY1Sa1Qx7945hdCSt6aChXBInnzyMp8RoKJ50jGr5x17a3XBnRQxamLAybh9z34whZDLr7q8fJpJZ5O62PJvhN9ktRnkVc9nkD++7fnsZV28taWlZTRR9JpGwO+TaYCixoseeJjSEiy9cnUO59iHmlgSK9F387PMZPP7QTmwbSwtnx3TB7i9Y7R3Rc3/z9hX84I0LupJEMqNEZDF8TlRMmL40uWEHm7ZjA9DXsFiXEe62GJsS1gSa0UKPiHgTu/7o707jjXcuoFRumZyy2gahi9sbBGlJRG7Ud199ajMRvQ3RDy14dA1nBWKRA/qnvlby4MrNIh7cD/GtK8KF4qjL+3GxhApVbKvCRlJ4UYq+j6VSG6X6vNwf11KQnljk1SKrTfsYHiJeIyBv4d7r3TMl8aRmcfPWDKbnVlEVIxGNpw3GlGdN7hxBxpcNrG8uN9l43V1sYHpmVYzgIhYW17TwdG2tKhJHWOPi2ZMH8dSTB3Hj5iI+/OQqLlyZ1vY0eml9WzEWj8fUSJEGBw6O4YFj49g5mTXB5JCIEU1ZdtQKEx9WK6asgtk01ZPMMYjH8uHpq1rdMC8TmRfxUlzor4NWx+rVwG6Icb8EvwnUERul4XjW9/QE9vzs82mNoL/49CHhyITBL4OFV/Dmh9fx8bkSbs0UURafmo05sURaDGBc87zkuj1CxLRYSvX5LB1ZQDolOvHG1LwWmxbLUL1bKtVQq7PMpaqOQEwIk4i7omdr+PlnU9qxNTdX0gRXWMhJaWo367KmhNJj72QOr7xyHM8+e1Bgn4PF5RLq8ry6qDffJF9MyIdQJuzjMOJhCnnY3bkseO+DM9c0KlKja5TICqGitl2hr8EAX5R9GJ4K872ueDIE1XTJhOrwYwIx7pbx2lvnFXO9/Nx+0Ysma3jp+hJef+8GPvzsDorVQFtz/VhWPSL2rjBUX1yeQVc4n41G6VR8QPxavYWLV2bx2uuncePWsr4cV3BtJqdi2GoJ+O9HREKiGn0RmuL2nTKuXTN13eQ+2gWOuV8gzI6JPFZWCrgzX9Jo/tNP79WqtymOff0yCqummKtWaxLieBriN12bPbeYMdcAABVpSURBVGNg2IZgvYKo5dSOiF9NMV9cJkJ/Mj5IcId1OYOaaa1R7FqONCEqDZzaqIgf7YvLWBaOu6Ec8ZUjw6Jnl5WAH52eE5QgkCuakGenta4wxLJsj9WuUpkb80H0NMKLEOj61AI+OnVdfPqO3M90QFThG617U/R7WGXbEYAfeK6uNRpLKBONCdjeNzkhKGEMxx/cIZs0qvWSH5+7Kpy9pEHjU59MCRFXBAGUkIznBSol1Rj7YdLblx3ybSVUz1YOULxd0ZMMsauuYFWUPNQRq91pmQAnIYcJNvRtrjemkaBOqzFQyGHZLglLzBiJpMTv9XDp5rIsrolb0+MCX6ZF75bUf48ls6r/HK3qNw1GNHTdjtncbCYjRiWlLtfGS8s9GAcQeBaJp9AXsF8pV2xlbF+xKR2CkTxLBZNqHLRvT4Z5UIzM048cwuGDO4Q46xx+9LEJ/Of/+ibee/+qRuIZZoyKa3lg37gggyE1VlrczGiECUMFGh4nEZuiyFsi8+KcKV6KCGeY0ltGX4Q7ndBqeybGp3qWfnRMdE5cLa5OXjFkXw2IY2OVPSGM7wnxnTauTBVw/uqi4TZZeDI9LJuQMF1MJEY0asC/NjiaENjBg3vESkcHyp3/1ZyxqIRaw+SF282K+L5RIXhSIFTMFGPKZuRyMRw7OoL9+8ZEPEVsd+QxIp5PVETdlLlsuEQDTYxkceL4LnEZVwSyyVoCGTOdx4FDBzAqLmFV9IKvURvqMIozXBXhMH7GBp3Q+sJxB5Ftrde2LQ1KoMA8sW/76dotw93M7zKg0bGN3WEuutNpsl1UXmIsxG/344FyXUzgC8U+LD4fBCMcMzYzfYwuj48LR2XFWqVMLrgtxmqtUcVqpaplcl4sJeqnLBY8ie/95lM4tH9CRZ/EosNwX51Rx26Ft0Xss+AhHcQ1vFcXkc6NTWB8204TOpR5xbVBiaLmrJ+r0LNgm4pWOY2ukWMarBmM4Gd9LW40nUehNQ4XzMQ2E/hhe5cWUNqxtFC9bwjE1jG+n8oMIZkdEfHODJ5PblNdzHRlo2H1NbSnhqGoD8R6l8vNdRrQKF1ewN/87QUzF/bDyALZm7hfdNyRQzswuXtUxDSxLvf3vn7BtVasqkGNCxrID+WUmWjtyUzcHF+rqhxb/d8zEWc2R4Z9cm0VScMVISH4HSptzUGIsg/FzHRzmoKgjiUov6PRcfWGTBUV9ah6Qjbwa/I3vuo9zcsQwLPFoVgwLRWhj0U86jFc18XpM7PqrbA5/PW/v4o/+4tPtW3Mjxldyo0vi7tJj+PLmjR/0aU9O4Jn33rznID9CyhUexjdvgNjIznVuzRkVUEEdCt9RmpMlXxf29FiSlkmqluq0KuVmvb4qWXtG/8nmkgMejoCW5/oaRWWq4QznVm9AVTSLFwI6FnjJ1xmqgjMsQLkOlNYCd0grVpttXRjEsmkMgqru+QpsnmiL9tV/PBHZ7Vlg4u5cGFJPY14SrhEjJZ2IIiunp5d0TzKoX0TGpVfv76c86oCWfidM+dv4/2PL6MqHL+81kAiPYSESIu6xAqR2lrYqilTz2bCOCwjxtRb5Ajivlx+SJV8oVjSynxV/lGj17QHxBYumXK29VqYsD9EW9vsYRXKyQw3M3RGDvUjxlp3TSbNENFAJZZsMBBCbBiW67XaTQOTUlk0ei3MCtZ8650bGnmvVIXD/aQsNK+6qq9GKCIEruDDU1cF8w3hsRP7bFT+y8Q3EHC/jHc+uIBTZ26Ih1PE3HxB6JEUS59Fir0xsYRFJK7iUkaMCN5FnF1NGGmdYM+UptHFoQAx+ZTLxWWCERQKBcVpDG2FHBi6i5oHtjUy5IDAhurbWu8XhRPd2HgYmJSDVhgkrMpoa2EQx1BOZlwzkUJTdF1QNzWBXUIu8ViE1QSDZ9SNXCl1lTsJ6AMB/pWmqfWhF+Z6eXVdv7g0j9Ghi4jL4/dszyuXdmTT2QHBdMcgGhPp487CEt79+TUtgVbnwBP/OJ5DemQc6aFhxAQXMiagxaNqa2XuPcfgRMNNXBxL5PqmbsW28/OhCYEs3siollnUZVHEj125t+cbgmpR5KAJ2xFDMawlaUashduE+LnhrHocJdkMLb3gM6kjPd9UnzIyLaKuFVuiLjhmuVTWNjgvLC22z2A0XusQ7d+s3KLEBBrKa6oqULdTrH+xvIKPxbWrVRrYNZETiCJkEHx58vGDOHF09zrWFMtc7zTUR2clmR5kZFOiDo98aTfQFEHxk3HTi2M7+LX7ICEi09YaP1O2Rh/XcJcn+jGh4Nv0QXdsN5JpyFHxhImeBLaoUmEPnIGlZ/1gzxJYi8ZVzAPFkZoE6FnOiSUGHk7YU5KIJzE6NoaV5WV933HWa7hD9UHjFhNs2RI00NWyksC+9BvCOTmFXIulBt48Na3zoJ+ez0WwbXwIxx7YeQ9gN4dreF5PpSkh2LjVEL3bbyruzORGEPOGhRmixgZ4riny1KwWK63UXTOVVqqfbO9GImHq9cplU+xDN4oconXRtulQ88B+dNC+FQy6OkUEhRg9gTP0NkwlQVjRZXIs/DyRzslkq/bkJVd+b2lHUzpjjqTqWvcStsjTgPwoNnaSGstvqmPDsyD4MyreT9ATYN9pKj7VuQW9LdvmtHpD3s6kIsjmEiLyebi9jAaVl9YqaFQ9zQ7GYiOq5yNqlAPTx6L1zNrias5RcPomLGLOSugqwXg8SzY7rsSdvjOD5eWCchYNRNjvFnZ+wlkPZHBxIeZU7Oiwayulv/dMj6w5DUQNTd+WrAVaAUtCcNfdjqttZoQ4GoV3DPjvh2V0gUEH4caF6EBLHrtsHDKYzhV96mgVX3dLA83eGm7aMyf34oXnDotHM4xd0VHNJ/23P3sX568toF4uIiWbzmoylkSTObRS1te2BU+VNIOzWpvcNzkSbYuwZWUjw8MqivVaQwugajVPga6pojetrDQc6vkQMMfjA+wXEktzqmqtTaqVbqSBRaZuXK1fIqrEofWjJLi+cdnCyi8tdbNFN0Yv9nUsrYawuliDDN26lQrDYUZmZJ4xd8sQ5IsvPIinnjiAbRNZDfBqdHzVwb5dI3jlaw9ph+ncWlcRTCaXU93IlLSvpWnWhQvC4smAus8eTEH4YRenLWOtthJ0KJ9XEa5WKrZnuGeS3bAAOmy0QcOAbk7IlqTRL1fui8TVK+m0uwZ/+VEbPRKdE+EYbbNwHpBmP+tY8N+3nG/OtfEGoTee7hawN6VbE9e6jRPHtuPw/nEl4pWbCzh38a58N2sdbhk9PKGvFiAvKiIvPrlX31i15asNKJRrKg1MD1AXu9YgkrV9tr3y0sAsjPtHK8qX8Y2NbqFYr64VVZz4Oy10JuNo5JcWtCR6slVv6II21gpqZNgaBlN82VXcR04yzYdmfK37i/imAbLdUh84Hk8MYn1clDuIoDuDGmo9lkBL5xp6hoXTk02jERD48vuvPoEnHt416HY4e3EG5UoLK2s9G8fdgBmpEkK8s/GEFfsrPbqGSF+7a1xK1jMa+ohhSbKkVrGZTlNlPDwzQRW9Yw6wgC1/69uYY0uUNAmZSCb0p1mQp2UctMS8aGVNi2yYcjDc4stucpPqlaq+R441JRpGV5kzddabtk0ozdGIDpfZsK22/J2np5j2CjEorSra9QLS4iP/wasn8KvPH8DEaHqQGl1cLmvunD2Ev6wIdeN16ca8Fh2Uaj0kcwn1omC78TX8ZxoFO6YzyfFVx2gYSkB4LGLO2dJAFsWuY+v25GKIPYw9Msc7MjKMTDaLYqm67rF0ujCdDI6OSULEBbAy3EZx7rY62ofCsZNibNKZjKoFGhUt55X3yI08B4cbxaJK1ZlRY6iaGuigxRV1IcC6265jOJvEqy8dxSsvHEJ+OKkbEl4MldHfJVEpFVsRkmqC95WrbXH3arhybQXnrt7FxRsLcKNZbf1lTJU9Mb2ebTwiZ7DclgNSLCMaD0waMKytB71B0saxxkErJhxT+6dFlH1zUgjfy+ayGu3gWIaInoLtSNTXKLU5YqqjRoDimx8d040hwE4oRg3sOTVGzHkPjVmgR0/56hgYvNo1HVLi73d4mEarIp5JAi89cwC/840j2sEQuM7ACPNsxgtX5sRd65kKWYblNtCwIwRZWqtjZrEqP+W1WsPcYhnnzk+jLraVYbrhsW06X3oqYfRL55hKJXUwBdG+pxPjIT7mtCJz/iBhTEQW4GuvcXtQ1mtyMq5GUkgs4qa8cAnvKawV0Lf318Saa0OaNhWaow0ID6KiCmJWZ2oRlUyOhVVsiVD1QsLJuMOjo6hVzaaY55oIOkvdmvVltGpFjOdjePHkfvzeK0eQz5rIdN+YcP2dBVhrpTbGx/LiTnpaPOBsKPvttnu4IFz3Vz+9jrvLFc0qarNlEBPCDWN8+04NQMTsQUSD43tM55bBZ+w1T4t+NJNcTxGY6lBnsHNaFaCtsH1bTerr4vVIAQuVSJCsiHZYZToki2dwlqeNaD8xG7Rl81iUxO+wopZz0MCHazaE/ScGmEcUFURtwzY5sMUaR+Z9hPucbhVDaXHjHtmB3/21gxjOUT/btMSGotEj+8eQSydx5tIizl5Z0rSAqZoy90bl1kqxgZm5ohY55TKsKBsVDkwjnc2plITwiudkUFL7tpDUp7j0nB5iTkzhieYyuvY4AfqOtjI1PNFoUEnPSh1iQt+z3o1ncWLfnJNAEUToDnrmNE49gtSIvsYkvYb6xZyI1kHLswjqO3qkVMd6Jq766xkhdDIZ14pXxZDlNTTKS8gKJPm1Z/fht79+COMjW5+Qxyse87F/dw57d2bwjed3i7jW7aHA5jLHGhggT8LtP/qoOUDOxlF9P2zFMFKjRLQS6SvQhpHxVqc7IB5DSaEfqsynMUEM2h0UP9oiSAXjEXN0FBev43lmh9VR932t0aaaCPUJpYjYL2zg6WoDj+nedOzpd2GvHr+XzqTE583o+PXiApqVFSFsXPTfAXzruUn57B/W1UDCEOtN7ry/ID/McIbHGSi2tYEYUwsO5UI2HrmDHgxGu8JOUAuuBzXWti221zdYUXdjcPhYT70RzVX3wnCYa7WLqSal58PPyJWOEsSe3KHpAgPuKW4Mh1FMSTAGfxVMBybowZBZYI9jJsGGcmmU11bQqq7pwW+//fIkvvroKIYykUE5CS3mwkpd59npOdovmE7yXApTW2hmiMH99xJRz8bpd1EuLCM/Ys7FdWyYz5yKbE5Y5saSmNbARWw+VtjWBmTN+dE2UsL+PRs79C2RawI09RQOGyMMi8wN3DE7ZfzflhLU0+i1PziuNNzCbrepkyMgJ2HT5Gyrk0lQgwN90woiuJStvdPXL2iJ77e+OomnHxrBSC46qOWp1juq7157d0rBcz8wue4j+/N47tHtODg59Au5lKeyjI2MYK1YxOrCLCqFFXEnUwLdhtTNSwkE02MNAoNPCcsYcfeJ8gOP/bxdxOWBbUIQrzuwhBRbEtFQ3GYBGSgIzPlxji0EJ4QhRVgcxEOAuBlVscr1RkO5lBgwLsRtsKVXS5sFWmVTQjzRl4yqdKEWOxGN2DNoDIcnEnHFh8XVZUxd/gLN6iq+9thuPP/wTowL8PW0rc1DtdkTAi7jh29dw82ZEuJJYs62ZhoXlwu68d3Ofjy4b0z2cIvDPsSSH9mfxR986wBm7q5haq6EW2JkVssVVKplJIpJNS7sdkgQu1brSFZ5BnfS5J01mmIv6h6eh0AuCuNyvX4wCECSMyI8KK3T0+CDwW+Oii31WMSmD8zZXraep2v6hGmYyHWhqNMqaySkZw7qIe4M4Q+/2+maAnmC6ZW7d1ArLuH4wTG8/OQe7BRPJGoPglsptPD51SW8d3paFl/ByLZdGJ3YqWOW1laxND+t9T9EA/VGF48e3aIP0eljYiQq1n0UD+5NY3axgvnlKm4v1LFcaAo8qqDErF+X5wdFTZuxELM6liNDiLjw+CfNDZjd92yJhRqOwITB1Yrb1EAYPgviGHCNa0E4CM6tntS6R99Ti+sr8W00uMcSN+MaKvAGjKqAybL1tbgqoi9W3C6sLIouXMSubVl885n9mJSfYUXtsrhwnwhs+eln07g1X8Hw+HZMHjyqngX1Iwv72S16d/omTl+WcWotNAUDPnR4FOlE5D7dGBHMO5ZP6uuRByawKF7LoljyRQHfd1c7WCm2tdyanFgtrgiRz8FPuxU0I3kNrbOqkKLZcdc9FKYc9UhlLl6hStdk/LR7yUGLcUECdc/4t+QiN+aoUWhbsB5CHc9avD4tZDIxKDqv1euqA+NWWRt8aAzB8sIcFmZvizfUxskTu/HUsW0DlbIoHsanFxfw/pkZzK60MLZ9lxDwmB5RoG4m9Vw+L15UBinBrfNCyItTy1guX8VvNTvC1aMYzScGBuc+5hT6bhtN6QsY0/AfW09Wix3ML7QEJq3ixs0W/FhzGq7opiCeVf/TWCFPicHFe7Jr5pwIUwEbtyUiJhRk2mSVMy2W8m3+2R0cuxyGxkz0pWcNFgvI9aDMvmk/MxtlEAA3kgtjnJIncLbqFeHCFF583IhhudbGgnDG259O4/zNVVRbwMTOvZg8dBSZoWErMd3BHIhN9hw4rMbh1pVz2nH/5z+5jpefbuAZAenbhUg8BvqXXcSafI3mfBzexcj6pEjVIzLX8jnhCtn1zEHU+nlzfB93xt9QHseTg20U2fzPEFyVfEIdLZq3UZeIrfwyMb6IRqUHzZOuYzFn3xDcqgfqPfO7DbYOigSgaYjlhXkkI208+dBO0VdxMUw9/OTjO/jg7CzKdU1XYvLwUXk9YkXTPk8rXoJBDog/R8a3abTn6hefalr1rU8XsSTq4BvPTGLvjoy2f2yZ57+Hvo7DM2rDUBwb0co34UQDPY60lXxKoUHPdljCBljD+KBWQIVN2cqFwjG9/kAnmv8pg61FhImSmLyyLQC1tc8qPo5jda8/qLTodnqDqg4St8bsYq2iu98Xzv34VgPvfbSIW9MLYMB9ZGIP9j34ELIjY7qpYcjL1Fevr1z7l22enJ2kjz7zIhbvzuDW1Qs4c3UF16ereOLwBL4mFn9yIreBXGyJ6OC+82XY3mHf04o6Fv/Ulm8IzBDCjA7BHzpkiWYbBJ3+IFTud4zbY8JIRgeSG7X1jHXfoT8ZmAZLhSmBZ7nVsyAXg88MAa0/DmNcYCvP+D59Vp5Ed+f6DH70t5fV3222E9qOdvChBzC+Y5dGoMi1mg93TMySUXHXsdF6O26r5diTj00obff+Q3pwxvTNK6gKHjx99S7mV0o4tHMYD+8fl5/5+1nwXga1H/8/Fs5YxaFBrx8AAAAASUVORK5CYII=;rounded=0;sketch=1;curveFitting=1;jiggle=2;labelBackgroundColor=none;fillColor=#A8DADC;strokeColor=#457B9D;fontColor=#1D3557;" vertex="1" parent="WIyWlLk6GJQsqaUBKTNV-1">
          <mxGeometry x="290" y="170" width="81" height="81" as="geometry" />
        </mxCell>
        <mxCell id="35jMkJhGXixxvMOsPopn-5" value="点击确定" style="rounded=0;whiteSpace=wrap;html=1;fontSize=12;glass=0;strokeWidth=1;shadow=0;sketch=1;curveFitting=1;jiggle=2;labelBackgroundColor=none;fillColor=#A8DADC;strokeColor=#457B9D;fontColor=#1D3557;" vertex="1" parent="WIyWlLk6GJQsqaUBKTNV-1">
          <mxGeometry x="160" y="183" width="120" height="40" as="geometry" />
        </mxCell>
        <mxCell id="35jMkJhGXixxvMOsPopn-7" value="找它下面的选择按钮" style="rounded=0;whiteSpace=wrap;html=1;fontSize=12;glass=0;strokeWidth=1;shadow=0;sketch=1;curveFitting=1;jiggle=2;labelBackgroundColor=none;fillColor=#A8DADC;strokeColor=#457B9D;fontColor=#1D3557;" vertex="1" parent="WIyWlLk6GJQsqaUBKTNV-1">
          <mxGeometry x="460" y="316" width="120" height="40" as="geometry" />
        </mxCell>
        <mxCell id="35jMkJhGXixxvMOsPopn-74" value="" style="edgeStyle=none;curved=1;rounded=0;orthogonalLoop=1;jettySize=auto;html=1;fontSize=12;startSize=8;endSize=8;sketch=1;curveFitting=1;jiggle=2;labelBackgroundColor=none;strokeColor=#457B9D;fontColor=default;" edge="1" parent="WIyWlLk6GJQsqaUBKTNV-1" source="35jMkJhGXixxvMOsPopn-9" target="35jMkJhGXixxvMOsPopn-73">
          <mxGeometry relative="1" as="geometry" />
        </mxCell>
        <mxCell id="35jMkJhGXixxvMOsPopn-9" value="将&lt;b&gt;&lt;font color=&quot;#007fff&quot;&gt;选择&lt;/font&gt;&lt;/b&gt;按钮的范围改为[999,565,1181,644]" style="rounded=0;whiteSpace=wrap;html=1;fontSize=12;glass=0;strokeWidth=1;shadow=0;sketch=1;curveFitting=1;jiggle=2;labelBackgroundColor=none;fillColor=#A8DADC;strokeColor=#457B9D;fontColor=#1D3557;" vertex="1" parent="WIyWlLk6GJQsqaUBKTNV-1">
          <mxGeometry x="249.5" y="393" width="120" height="40" as="geometry" />
        </mxCell>
        <mxCell id="35jMkJhGXixxvMOsPopn-13" value="" style="shape=image;imageAspect=0;aspect=fixed;verticalLabelPosition=bottom;verticalAlign=top;fontSize=16;image=data:image/png,iVBORw0KGgoAAAANSUhEUgAAADwAAAAuCAYAAAB04nriAAAcDElEQVRogW16WYwk13XliT1y37P2pat6X9hki82maNItWRrRtOkRBl5mxrAG8MzXYLx8eDA2/G/AgC3AH4JsA94XGbYxY1MLPJIsk7BFkVRzUVPqfamu6mrW0pVZmZVbRMbmc19ktyxL1YjOLeLFu/eee+6574X2m1/87WSzv4+7mz0crc3hJ184h3OrC2ijh2/hNvqehyvva/jcq314toUXPzqHF2fy+OytHWwdAJ96Qsfpcgdf3vHx2nvz6N03kOg56IVllDMGVqs2DtdtNPIGxojh+yHGfoBoHCHg+16kYRhG8MMEIzlivud1VjOHR38aj1jXEMQJDH7Qghij1hDDhyMk0RhJzJFHI8TeEPGwi6TbgdZvQzvYg7b/EGjdReIDZcOD+WTtNOaOt1A9tI677x7g0s17WJ2tI5cpYAmrWHfv4NTxBC+2XXxtjTfkzVdyGZwoZLHXH/KzgbzhoOj4cEs6vE4GoZ9DJWvgyRkXR2ls3tZpTAyXF7uceGIa8CMaZ+oAPysj6Iw4ieksXRln8rskmRirpa+mnI8EUQBEfGfkLCQhx4sNaLxON011rfymcYCYA0S8j66H8NauYRxYMFeqizheWMHR5hzedq/j2nd28eb1e7j4xBOYMeYx4L8ws4ELRyy0OKkDL4bNQZ+vF3Gr78HSdBRocNkGnKIOK+fC0fM4M+3i3Bzfc5IeI1JyDBQ4a5soEafFEulxiHYUo8P3B4x4n+f16Rif58aGgVDO46THfA1oaEIjooSHFvITDc6IwRwtNpEYJiLLhKbFPPiVQedEEZIgQBwPkRSqDEYLZj6fR7mQx0ymDGeFHrCu4jtrG2iU63jq0BksYBljbQSn0sPFExGu9jSM6bUzFRenPRNlhq2gOyhZNKZA4ysZzFULODfrIsfIyswKjo4KjahqBhwaZBLCiWshdk0s8boejd2n0R0/Qo9Ge3TS0CYKaKwcoxjwGP2QlgzooFigbRkKAaBhSUSj6QzdpGMULDSFCIixvodk2IJRbnAqRE4mm6GRNizQgPwp5A/l8Yb+Ht68cw1TzSoWc4v07FE8rN5BpdLBnEfDOGjNdfHCXAY5Dp7j6DlOsphnniy4uNigA4a8KSdmE69lGlvnhIZbXbz67n109geoMDrTdNDq6Vks1wvM9Ty6NHhM40bEZJ/zHvH6bkBnBCH2Ajqa99oXgxIdocno6hGNJ3QjQQIDakkq8LORQP0Lx9A9Sd6GcpIWhrQ1SxgQDkgINS2DVfcEiss2Xtcu4/Kd91A6nsOUPcXL99HWBlhyRqhpEaNVwWknxiDpwYx1OsHBoh2hWzHhxwGc2FLQyhPA84aFcH+IP/7Lb+BzX7kOjdGyx32UeO3K+RP40Y+exHPnDz8mKBcmahkbLlEwtHQSm41NOtrjpHcjE/cZyh2DKaF5PIAxp+8zZGOBtp4w8YgeXpOEBRAWRAmJjU5LSGymrgnutcmt5M9CwzmMjyzZ+PaDm7j1YA3nF5qYMo+rXwfaVkogsGl0HRkO7zCPK4aLkuFjxMEjZNW5Nr9fyDDafP+Hb689NraYdMkbdzgRE7evhvjTjdv42/83r64xCNFms4Dl2QpW5qo4tdrAykIdDXJDj5Ft0xENV8fmQMdDL8CQER8yuupVouvaCtaBkJ4QXBxDj0owRkNCZkDisyzFtN81GMqcsrOMJ+cMXNu5i432LSxWjxCWqySSASRD5JoScnCZ30IUZeZxhQa3IjE4JQ6BeZXHnXs7+NsvXEqdwFicK97Ar770Fra7Nj7z1QZ21wJsxD/M0mSSoJjUDTos2YBFiC7P53FkoYYXzy/i0DxTbHkOi8UMBpUsrvc1tJkGHXJAmxzQZf7HpoMR7z2i0Qfki4FAOSgiyPXplRIhLTeAju//S0g2ZRxvruDGzj24/U1Ml2dR1OZJFvv8fcSrinBQQ6L1WeNYmvQuc8hXXrVocdU2oRNK71zbwO0HnTS6Rh/PHPoAZxd20e4VsbbWR71SYFW4gXfWZ3B1b5phdiCJGTDnbvH3W2tdfPnr17A0VcTFp5fx8WcO49yZFZxnaRxXM2h5zHEa3iYBDJjPXbL1PkvfHufQpvGd0Rh+oYAho2wGjJlFv3//n0TcQNGt44m5HLqjLkloTEZuMm+k0oU0WFNxTrREMXVRHxPeY3iMcKgTSox8fzgmF7TUWHoYIDdqI8/c3+xU8Nl/OMZ738ILJwP87x//F/zuq0/h6qtlZhWT0uScWA1YPMm2IllC3NsbYf3L1/EPb63jwtkb+PiFE3iWDljKuzhctsgdGlrEcpsaoDUwsGNreMCcvsfy1/WLsPKE9DrV1AxmCc7Sv4O1RD2v3jlmFnXmUBj2WUdznOQhxp8OoGkaoxwzky3NQpHuy1shdpMIQ9NjxUjQH4xwfWPEoTOICO+w72Iq56M9qmPvvon/cHYa//0j63DtBEcqm6Rn5nLjJFi4CaIQ2u4A2OZcGMmk6hJdMXap1L7w3gf46tfX8NzTC7hwWuBeYf6zItRcZJnnJwn7MwUH29YY387kcCsp0hljGpxcR4dEtEhVVSI8HUU4xvdFW6eYsO2siqxGkzVUaHT4+HdTc2i0wZz2+T5SRKgLpAjpdk9qGaM2lcHBro0338/i7LE2fu6lNl6+cA9zNQ/fvFnF128ssIQwwss8cja0DqO7xyi3OZ8Kb7PI/2iU9pAE9IBSdwt47Y11vHbpvlJWQnhLU1ksTBXw7FNLOHd6HnU66mlLAllDhhLNDOixfa3NqTMPUUcTczS8TpMzP8BwXdFO+mcoQE/cwXe2YmVHDCZtqRymWhpwEhnHVNhJaPSg1sS7tysYh/v4uZf3kY18XNko4Q/+6TT+7s7zwAsrwOkZamGmzRYddb/HG/C+GaKNrC0CI/Hp8Ns+9ISiop1TJKcxonEUYr3XwvrDPl7/1gYdmceLP3wUHzpexgnW+emmDXOKkRNWZcmnyVt83eFrFQXCtoQpmuL+gPz+9/EXPfzIYI9HxPca+sydVssjOjTYNNrnpKLledx95xg++1cdfPJHDFyl8X9/aQnvB+eBDzHCLz/JaNGR623gdofMShQtFYFzTcI6D02UiYjNHtUax9Wo+LRjRBsbGq09pG/o2iGJc7uD9ftt/MFfvomv5iL8CGv92bMLMBdoFosItaqm8jJWPU2P/67Q+BajzpNUfv8gYvtu5CkaIXotw+sN1uLdgYe/uN3HG39/BzutMVx625+tsZB7GKw18aXXZ/D5N5cxKK8CrLv4CCP7zCHqUDp4lxN/v0XhQDg/NwNc5EEhrlGxMUekdUrlWMVBcnERYOnSiSQ9x6rQZe1dp6MO6Cgrzfm1rYf4k796C0+8vwlzG3uMY4m0xXJA8yIp1pOIJzQ7IIsmaNDoBl0iLZv1Aw3WmPuulkeGaqw77uK1mx7efWUfweskN3Y15knmZZ3G1BzEs3MY3OH4y4Tox6iwzsylvwWiKQPohLKWYefzn1aQLNEZ0hBYA8XWODhgJGkQW0idoiQ5OgUR0dqIEDep4HZZzh7SMdk6tGaWCouWlHKIBwO8d68D82uXtlncB5jLM5pmFUW7zppa4/R5MkVCPDlCPGQUhzRNop37PpNFiLiay3M9dOjVezbL1kIGxiLzjPCDwLTJPKT4R51jz7Ocfeop4BQdzWZCfa/aHL4OiLKzdSQn6ZBBkAplOgK7dMSlPeDaPvSZHDLPzFF6ukrbO+0Q0SZFEccxj9UVq2t5G1FX7k/JeUAuYM9g/tan30aVUDvx1AqOTA9xdLqFI8J0zJeCOa2Y2+CRlqwAqv1R7Gx+TxbrKn9pMOXfSIQ8a6C5wvxKiJpbZFVqYjbGzK9A2ickz7IpWa2mhsbpsErhsnQlU3RowVLGatIsdBnZq2zmr+xDG4Swn6ij+OEpzM0RNY6FmvTJeZaxZToxrmHgh4peLem9eX1ne4DhDudlkaU7zJN9Dnzv/gCXvAhTJIlaL6DhY3xyeoTz2S2aVuUxzUGq+N5a/b0RzlB8JDR8zDlaLB9+g6UlRzbP6LRrwvhiQJadzkmSkCuqP0nJX8hGIimTnM5MzoXKVf1GF8ZBAOPDDcxNl3CEEvPDDQMXZio41ChglopLpFCUSN0f4MZuD1k6oZlzlJ4eUPzcWvsAN3mY+VO88UwRBlmuRsKYpmqZL2SwnMuS7b9bl7X07hPyehRdGU6084BBGlC001h2KeNIV3VYIpbQOO04WfYhwyieEGg3GMGpvMp9GLFyQjp+kjpEIC6/8r01ClCsO1g4vYC6HePnn17CyVoRFTYJnZgih/C/0Rqg1fexzzxmN4SHA18tOshY4ualjLzVUFuYZlm6QMHRsHC4EOFsoYLzpSZO5aooaSSLSdcjU5EpxBAhegBpwFJTx6S1FnrxFihlsTHSsd7PwRuoJQcYJktRwHZBp5MaHMDXlEZODlXT2ipsG0/Ei2pqY9W0690+I2SoPnpp2sV5BuWYza6LRObQmV+4vINv7+7jjjdAhx1Tj+NaFoNCpg4pS2NZ6pF1I2kmKGcjqi2t21Pjms/x5svFHJ4tFnEmXyfxGIqluyQonxV5xH/9ZKiOYeJTSASM5ZCGx2p+fTajt/byqnHf4o3F6G1PJzo1daRVmu6R9mzjPtmV0Z1Z/t7MkIFosGjtEnvp6XIWF6iWLrBcPclyVuDk//DNdbyx1sI797soEjWBOUamyG7bZiks0RFZKj3W+jhDAUKBE/N9RH6QHFaLfN0BCYy9+yeZE0X2TH3ywjdaO9gNPBxQsYwtJnuOMpIwTegEEi97aQMeNXN/SInI1swfp+R5l82TNBCJEI404IlBGezCC9mEywrckCXl8jeBt14Dnv9xKqaVFDcRJSjvZYVjZHmDWZaaF6en8LFmEStFVznryv4Qf319C1/8xtV0UY8Y9fUIjuvAJALcErUzD5t9t8HPY8rfQOZBox/rRN4ntqkSsi7Mz3zpChtrNs/CoI4LnQNpmSwKlTKWnCZLlM5eV2c3JMukPt7Y3cF3bmroDSZVhGk9fpCSTrJAMpqyFVP7sUv5yFyXyL77OrSv/F8k5z8BPPn84/wshh6mzBBzFPunqzk8P53HChn8JtXZb1/exLt7A1aisZp4c2WK8KQ+YMsYeLLMK68DagsLMaGr5VgVyNi+rHWZhlrESx7LBE6UxhpMI/MSxbfO+qSZhFqpDrNRR255iQJ8Gj9E3Uq0IMvoGYTbO+vUqK8P0O/ZhDQHpqAQznEkUjvMQSnRU6aKcJRYNIr5eu86kr/7E4qLZ6G99F+oISI13kLWxssLdfzUXBZNsnWXBry+08On39/CxsFoQnqa6nzyhKeeKaUkSCYfHQwxIkQ9MrLfO0BEshLoajwvMRNF+oa0NgJnVTUTdUREnxnc7XGgDMmTRufJilQuZ46v4OWCifl9Dw16XLLw23f38MqfXcXg8jXUrAX4bhketWlYtTCkUDKyzFlZNh1l0lVDOks7YB/85tcQW/z+pf9MBg0wQ8H/UfarnzpexcXZKrbIqN/YPsBf39jGN9sDqiWiqUp4CtKYn7qwuinLUImqyQbHLlazcIYF9Nr7iOicmEzeb7Ux5vh2k4rQYiupcJGktZ0tKyUXrRhLfaGo0CkQyMx6poBqLsDxeQt5l82/LA1MoHF9vYUHtzZxrLmOQ/Z1PLh6ApubHfQ+soqgWUNwyElFvzhT11TDAOamJL/20s/AqFaxakT4n0tV/MShJmZJMtfaffz+d7bwyv0WeStGlt85hKjF19ix1PpUIuvTPAKiRZuUGUkHnTlaqIuSGmHMujveZ7TpMN8nLy6z6WH/LiumiaxzKasTRY6mzlqrmczdTBnZhcNYfuY0lqfEoxFJJ6bRHIB5UWL0jtVb+LUXvoal0j5uPvUt/MLn/hf0ERmwYKfrwxMICYJ05ppWm4L2s79A9Jg46ur4RfazP390Bh7Pu/Swi994Zw2XWyO4jKZDAyzbgCmL6cy3MT8nREYsOxGaptaUxeBYUZl8InHxthYhb1NljXZ47PXhE96D7X1YlTycco5jTlpTGpuwvpuqDqqw55AvlTBXN9UKy3DI1oE0XGB+5ZgbqzMllJsV3GzXcWOvhsVSB+65XWw99XFap/yetmYC51jWiyM1MZvGHqezfvXIDH56sYidcYBX1nbx6W+t4b4XokEtbNJZNidmWqnBIJQDRlWimyBVngqbNF5tseiywGCooBhMAaNEbS5kJYsM2yylnT5COlxQk/A3R5DmeyQ3gbRSc/QC6bxI/TxTM1SEQtnsYoR3ex6VoIE5SjijcRhfvHECzzXv4sHBMu7GS5SBBc7Dn9A/4dvvqPJhUO4JeSwzDL+03MBP0dhbzLfPvL+B37uyoTSwTgLqE4OhbK+QtATSWWodjY7WMi4e0aymTeTnJCfFsenKskA2FWc6g5Jt5GFH/O5hD6PeiG1xpBjdLmmq/IFoNHVV3HhioYm5Y+xAqiwp2z04lGoh80b2dkZDklfRxqnjh/EXbxxBbr2HDxZOwTx7jADpEy662sPB7RtIvvx5mPNLyPzof8R01sT/OFTGf10p4V3m2e9c2sCXNlsoOjkKBlNtgGmB7DExfbwROz+f4sFAvlZgd8eIC3LS3RqMjSg1VpuIUH4fkjOUthFH8zDI0BZVI5yC6qwG3QDBzgA7Q4oXWxxJlk4YXSubQXkmS8gyKkGaJbI1MZTJ0PuKGQnLiyen8JUTp/H/W6vQVufZojH/CTvRFklrF/j6P7LtW4R+5klqXRM/RpH/i6dm8M3dPn790jquk2CKLEVOkfcR+JJUTDpzLMuoPDw62WM3dbC1j5D3zjcq0KnrNWMSYE2bRFybIHzScAh3TA5ZR7NzJtHqqM99WRfzPHS9hIqN3ZJoWpNyrDKbR73JRj0MHgt5n8YP41TIT5ddHJ4t4eIPreL9y+xJGQWdtVTOlNWGuFxB8rEfg37kGKZZkj7ZcPErZ6bwHsXDr799HzfZsWTrRTo/q4hGo8Gy6KYzosWSNP90MCE/ZI0ddIfw2j3EhLlbKZCAssrp0mImco0YK4uEytZE1WbVRibxpOESo1lpohTuI3aDMREg+1RmQrWTKWYwv5xXDYy5G8EixKQbGI1lozpWHu2zx1yo53D6xDRFBlFA2n8kDmQGWqkIrXgSqyxnv7RUwn9breAa8+jTV7ZwizwwzXv45bwqJ1JbdUPClsAjE48TykBKWWHqHI3LsOc9+KCFcZ8lh45yDwbIzdLBVIMGnazFUJtmmmhw0ctx2hmJtcp4WWMjejKyfxzJ0vZY7SvFTDtTeC9byjHCOeiyMEEv6J7s0vOmPEIO6LBc0NmMuMbPqYehduMiRT5q15LHKkX9LzNnf3apiAd+gD+6+RCvkQ9sMVBYmHpXypeIC3GU9FyRnqJSbV5bnCjPdU0axmgOWLoGe6yxvSH0ByGceoHNjZ6yOS/SrThl4jh9VXMSZ8jesAHVPdkOazfbyngkspQGO7kmjZ1FgUwWdkP49GjAyESeT5hoKnekcRCjvLGOtXsctMOo65R/B13gQ021A7/MyP6flQp+crHAXirBK7e28Tc3HlAaushMyd5ORtVVIZtokovCOLJSoth2svGViBylQHdzOuVvmYYTXTQ67ox4/xARHZknCmQV1LQNBelYlcFEkael1sPNlNVovTxJ4Jo0mOXOp6NNt15HdiojpU+24Ij1RBV62XX3GEFpsXIyETVB0vzeAfS3d6FXqKxOlNUjCkVG5RPMBzFW/v75Vgt/+tYm78RcIuk4QjyurZbw00ozMVh7JO8ThZpELcnoaXtHAyyir8L2MM+c73xAGUlS83ttxGRzb76MisgIJaC0tBQyogZTRZ/oAlmxZJOEjE1xRMvHdIyZoSzMk6FltUWUiPIUDZZ1qVGQQkURwWR9KOr0YFylRmZd1Z6ZUt/X6e1nKun69UOmw+ff28T9LrmhXoHNXttkLY51ERFpjVHxTFJuUKJfmzzEId8zr4NYV0pKypb0uLLpbrA39iW1Oh5CRjugvt7nPQ0lYxk5W0vFC+9jmikhKqeJAiQqgi5TVXYe3EaNE+OEPEKNOavJjyz8Q773g5Sh5emZKEnLgc6bavMkkCfqaqEtw9+eJsR+Yi7dh3rjdguvXt2GXnVZfnJkS9HY+iN7GIbJMs7jTubfMK20XrJNo+4pGjhBRiJHo0rVDIKMbJATmvuENx3aZ1oJ+Qm88xLZyU6oRNi2dTWmpGRgCaPLPjGFR36qgawsSg5olNqpo6F89choI/ksPUZgqUgrQs6QZQld7XhFRDYaHPITUzlFWh8wun/+1j0W+jHyzTwbckuRVBw/MixWQjHR4/T5jEd/j95LR6TFCt6ysx9OyFGQ53DSWk5aRTqZHVxvf8i065KIcjzPYf5bJFQarUhVV4bKnAPakMijDkxHR3I6V2KOcLahRxEgREfdGUQjfu4i3O8oQomcKkksqzbUCsvsS6maNJKKTiTUalmcqqa7El9h9/QWAuhyDkuCghO9LQsCEScuz15oUjz1VCFLK6AnmloVSaJESUjZYo21kOSTemHMSY/GZFgKh6yjwWXdtlmbK4xqpuWjTVREDpUaS1vAPHQNKavs1pP0CR6qcrVYYHJcWyI8e5R1T1KL0i7o9xHz8Lod+Ac9BEM21qxnIzJ236MjePMGBYgutXmL8pOQX6QYWeE5sgP86kYLYZKWBckrWUezadxowgGqp9US9TzWI6NVYEViik6WvBbDaaCQp3QKapmGv3f6MXqsEjVGT5agdbKRIw/RyC6/Jimos42U/A/UwytqxTMZo+zKXicdGLPq+EOYjQWoFtBjQoc0OhwO4PV6NPiAco8kRgLwpOWi9BNtXacqsjiZcPMANm82Y6UrR5f3hrjysE+dbKqHwWSNeEzBYVCgqK1SpMt5ab8sFYnRpdG6WoyI0sZAvCXODOR9mupGIiJC2kB53ouGj3S1HFxgtJ2MhjyD4pN3QpkT29wkHPGgHE5CFEzZmOfQI5Y12mXwVT3bppa9yXIHoQh5H0EgxjOi1LWyWuERugNGOeTAiyStwzTg+k4fpZMNnKqki+aXtjvo8Joay49EsyXPVlEiGuyA9JojnKsiqNI40TB5kkoZr9altbTH1VWvO4msIjNNrSlLUrqOrs6gAsWQSV7mnB150i6UCEZKCktNTqisIqamr5OPPFkP75GjaHSvA7ND507LI4EkhYEhnEVjxxT0gUe2ZsLLsxZi8ICQZy7M5XM4RJFxozVEkcYeYcTliY/LzGuXDCqqrMIe1Kclvd0uhmzVslJ1yunCuxisqWcNJ61enBKZIkTJaXmfGBOIp7sJqkLo6dLvJAvUWn17xPJDw2NGXpqcOPbSXRsGTfpfP+JhBnRKH+boAEl3D2Z/d4h+wUUhimQHBG16xqPuHAc+FRFrHlWUF2XQGQzwAZmxVith9UgJ+ho7LMKnwc5kneL8WosSkqwdVEvoUGgUCFmPY/oMR3+rjYysNjSL6VKrkKPQMAlNM0W1SUc2ebBSaq6sQUE1vjAkpxnlyTePHSHNgFRNX7MZ9UCtZkrdjeRxQ1nUGw0U+SYmU7G1jUA9ZNrCvwJt2DHU9l6pdQAAAABJRU5ErkJggg==;rounded=0;sketch=1;curveFitting=1;jiggle=2;labelBackgroundColor=none;fillColor=#A8DADC;strokeColor=#457B9D;fontColor=#1D3557;" vertex="1" parent="WIyWlLk6GJQsqaUBKTNV-1">
          <mxGeometry x="160" y="310" width="60" height="46" as="geometry" />
        </mxCell>
        <mxCell id="35jMkJhGXixxvMOsPopn-14" value="柔风抱暖" style="rounded=0;whiteSpace=wrap;html=1;fontSize=12;glass=0;strokeWidth=1;shadow=0;sketch=1;curveFitting=1;jiggle=2;labelBackgroundColor=none;fillColor=#A8DADC;strokeColor=#457B9D;fontColor=#1D3557;" vertex="1" parent="WIyWlLk6GJQsqaUBKTNV-1">
          <mxGeometry x="249.5" y="313" width="120" height="40" as="geometry" />
        </mxCell>
        <mxCell id="35jMkJhGXixxvMOsPopn-17" value="" style="edgeStyle=none;curved=1;rounded=0;orthogonalLoop=1;jettySize=auto;html=1;fontSize=12;startSize=8;endSize=8;sketch=1;curveFitting=1;jiggle=2;labelBackgroundColor=none;strokeColor=#457B9D;fontColor=default;" edge="1" parent="WIyWlLk6GJQsqaUBKTNV-1" source="35jMkJhGXixxvMOsPopn-15" target="35jMkJhGXixxvMOsPopn-16">
          <mxGeometry relative="1" as="geometry" />
        </mxCell>
        <mxCell id="35jMkJhGXixxvMOsPopn-20" value="No" style="edgeLabel;html=1;align=center;verticalAlign=middle;resizable=0;points=[];fontSize=16;rounded=0;sketch=1;curveFitting=1;jiggle=2;labelBackgroundColor=none;fontColor=#1D3557;" vertex="1" connectable="0" parent="35jMkJhGXixxvMOsPopn-17">
          <mxGeometry x="-0.2" y="-1" relative="1" as="geometry">
            <mxPoint as="offset" />
          </mxGeometry>
        </mxCell>
        <mxCell id="35jMkJhGXixxvMOsPopn-26" value="" style="edgeStyle=none;curved=1;rounded=0;orthogonalLoop=1;jettySize=auto;html=1;fontSize=12;startSize=8;endSize=8;sketch=1;curveFitting=1;jiggle=2;labelBackgroundColor=none;strokeColor=#457B9D;fontColor=default;" edge="1" parent="WIyWlLk6GJQsqaUBKTNV-1" source="35jMkJhGXixxvMOsPopn-15" target="35jMkJhGXixxvMOsPopn-25">
          <mxGeometry relative="1" as="geometry" />
        </mxCell>
        <mxCell id="35jMkJhGXixxvMOsPopn-46" value="Yes" style="edgeLabel;html=1;align=center;verticalAlign=middle;resizable=0;points=[];fontSize=16;rounded=0;sketch=1;curveFitting=1;jiggle=2;labelBackgroundColor=none;fontColor=#1D3557;" vertex="1" connectable="0" parent="35jMkJhGXixxvMOsPopn-26">
          <mxGeometry x="0.1306" y="9" relative="1" as="geometry">
            <mxPoint as="offset" />
          </mxGeometry>
        </mxCell>
        <mxCell id="35jMkJhGXixxvMOsPopn-15" value="神秘" style="rounded=0;whiteSpace=wrap;html=1;fontSize=12;glass=0;strokeWidth=1;shadow=0;sketch=1;curveFitting=1;jiggle=2;labelBackgroundColor=none;fillColor=#A8DADC;strokeColor=#457B9D;fontColor=#1D3557;" vertex="1" parent="WIyWlLk6GJQsqaUBKTNV-1">
          <mxGeometry x="170" y="620" width="120" height="40" as="geometry" />
        </mxCell>
        <mxCell id="35jMkJhGXixxvMOsPopn-19" value="" style="edgeStyle=none;curved=1;rounded=0;orthogonalLoop=1;jettySize=auto;html=1;fontSize=12;startSize=8;endSize=8;sketch=1;curveFitting=1;jiggle=2;labelBackgroundColor=none;strokeColor=#457B9D;fontColor=default;" edge="1" parent="WIyWlLk6GJQsqaUBKTNV-1" source="35jMkJhGXixxvMOsPopn-16" target="35jMkJhGXixxvMOsPopn-18">
          <mxGeometry relative="1" as="geometry" />
        </mxCell>
        <mxCell id="35jMkJhGXixxvMOsPopn-21" value="No" style="edgeLabel;html=1;align=center;verticalAlign=middle;resizable=0;points=[];fontSize=16;rounded=0;sketch=1;curveFitting=1;jiggle=2;labelBackgroundColor=none;fontColor=#1D3557;" vertex="1" connectable="0" parent="35jMkJhGXixxvMOsPopn-19">
          <mxGeometry x="-0.28" relative="1" as="geometry">
            <mxPoint as="offset" />
          </mxGeometry>
        </mxCell>
        <mxCell id="35jMkJhGXixxvMOsPopn-28" value="" style="edgeStyle=none;curved=1;rounded=0;orthogonalLoop=1;jettySize=auto;html=1;fontSize=12;startSize=8;endSize=8;sketch=1;curveFitting=1;jiggle=2;labelBackgroundColor=none;strokeColor=#457B9D;fontColor=default;" edge="1" parent="WIyWlLk6GJQsqaUBKTNV-1" source="35jMkJhGXixxvMOsPopn-16" target="35jMkJhGXixxvMOsPopn-27">
          <mxGeometry relative="1" as="geometry" />
        </mxCell>
        <mxCell id="35jMkJhGXixxvMOsPopn-45" value="Yes" style="edgeLabel;html=1;align=center;verticalAlign=middle;resizable=0;points=[];fontSize=16;rounded=0;sketch=1;curveFitting=1;jiggle=2;labelBackgroundColor=none;fontColor=#1D3557;" vertex="1" connectable="0" parent="35jMkJhGXixxvMOsPopn-28">
          <mxGeometry x="-0.0735" y="3" relative="1" as="geometry">
            <mxPoint as="offset" />
          </mxGeometry>
        </mxCell>
        <mxCell id="35jMkJhGXixxvMOsPopn-16" value="混沌" style="rounded=0;whiteSpace=wrap;html=1;fontSize=12;glass=0;strokeWidth=1;shadow=0;sketch=1;curveFitting=1;jiggle=2;labelBackgroundColor=none;fillColor=#A8DADC;strokeColor=#457B9D;fontColor=#1D3557;" vertex="1" parent="WIyWlLk6GJQsqaUBKTNV-1">
          <mxGeometry x="170" y="700" width="120" height="40" as="geometry" />
        </mxCell>
        <mxCell id="35jMkJhGXixxvMOsPopn-23" value="" style="edgeStyle=none;curved=1;rounded=0;orthogonalLoop=1;jettySize=auto;html=1;fontSize=12;startSize=8;endSize=8;sketch=1;curveFitting=1;jiggle=2;labelBackgroundColor=none;strokeColor=#457B9D;fontColor=default;" edge="1" parent="WIyWlLk6GJQsqaUBKTNV-1" source="35jMkJhGXixxvMOsPopn-18" target="35jMkJhGXixxvMOsPopn-22">
          <mxGeometry relative="1" as="geometry" />
        </mxCell>
        <mxCell id="35jMkJhGXixxvMOsPopn-24" value="No" style="edgeLabel;html=1;align=center;verticalAlign=middle;resizable=0;points=[];fontSize=16;rounded=0;sketch=1;curveFitting=1;jiggle=2;labelBackgroundColor=none;fontColor=#1D3557;" vertex="1" connectable="0" parent="35jMkJhGXixxvMOsPopn-23">
          <mxGeometry x="-0.3429" y="1" relative="1" as="geometry">
            <mxPoint as="offset" />
          </mxGeometry>
        </mxCell>
        <mxCell id="35jMkJhGXixxvMOsPopn-18" value="战斗" style="rounded=0;whiteSpace=wrap;html=1;fontSize=12;glass=0;strokeWidth=1;shadow=0;sketch=1;curveFitting=1;jiggle=2;labelBackgroundColor=none;fillColor=#A8DADC;strokeColor=#457B9D;fontColor=#1D3557;" vertex="1" parent="WIyWlLk6GJQsqaUBKTNV-1">
          <mxGeometry x="170" y="790" width="120" height="40" as="geometry" />
        </mxCell>
        <mxCell id="35jMkJhGXixxvMOsPopn-34" value="" style="edgeStyle=none;curved=1;rounded=0;orthogonalLoop=1;jettySize=auto;html=1;fontSize=12;startSize=8;endSize=8;sketch=1;curveFitting=1;jiggle=2;labelBackgroundColor=none;strokeColor=#457B9D;fontColor=default;" edge="1" parent="WIyWlLk6GJQsqaUBKTNV-1" source="35jMkJhGXixxvMOsPopn-22" target="35jMkJhGXixxvMOsPopn-33">
          <mxGeometry relative="1" as="geometry" />
        </mxCell>
        <mxCell id="35jMkJhGXixxvMOsPopn-35" value="No" style="edgeLabel;html=1;align=center;verticalAlign=middle;resizable=0;points=[];fontSize=16;rounded=0;sketch=1;curveFitting=1;jiggle=2;labelBackgroundColor=none;fontColor=#1D3557;" vertex="1" connectable="0" parent="35jMkJhGXixxvMOsPopn-34">
          <mxGeometry x="-0.4583" y="-2" relative="1" as="geometry">
            <mxPoint as="offset" />
          </mxGeometry>
        </mxCell>
        <mxCell id="35jMkJhGXixxvMOsPopn-22" value="商店" style="rounded=0;whiteSpace=wrap;html=1;fontSize=12;glass=0;strokeWidth=1;shadow=0;sketch=1;curveFitting=1;jiggle=2;labelBackgroundColor=none;fillColor=#A8DADC;strokeColor=#457B9D;fontColor=#1D3557;" vertex="1" parent="WIyWlLk6GJQsqaUBKTNV-1">
          <mxGeometry x="170" y="880" width="120" height="40" as="geometry" />
        </mxCell>
        <mxCell id="35jMkJhGXixxvMOsPopn-25" value="点击" style="rounded=0;whiteSpace=wrap;html=1;fontSize=12;glass=0;strokeWidth=1;shadow=0;sketch=1;curveFitting=1;jiggle=2;labelBackgroundColor=none;fillColor=#A8DADC;strokeColor=#457B9D;fontColor=#1D3557;" vertex="1" parent="WIyWlLk6GJQsqaUBKTNV-1">
          <mxGeometry x="360" y="620" width="120" height="40" as="geometry" />
        </mxCell>
        <mxCell id="35jMkJhGXixxvMOsPopn-27" value="点击" style="rounded=0;whiteSpace=wrap;html=1;fontSize=12;glass=0;strokeWidth=1;shadow=0;sketch=1;curveFitting=1;jiggle=2;labelBackgroundColor=none;fillColor=#A8DADC;strokeColor=#457B9D;fontColor=#1D3557;" vertex="1" parent="WIyWlLk6GJQsqaUBKTNV-1">
          <mxGeometry x="360" y="700" width="120" height="40" as="geometry" />
        </mxCell>
        <mxCell id="35jMkJhGXixxvMOsPopn-29" value="" style="edgeStyle=none;curved=1;rounded=0;orthogonalLoop=1;jettySize=auto;html=1;fontSize=12;startSize=8;endSize=8;sketch=1;curveFitting=1;jiggle=2;labelBackgroundColor=none;strokeColor=#457B9D;fontColor=default;" edge="1" parent="WIyWlLk6GJQsqaUBKTNV-1" target="35jMkJhGXixxvMOsPopn-30">
          <mxGeometry relative="1" as="geometry">
            <mxPoint x="290" y="810" as="sourcePoint" />
          </mxGeometry>
        </mxCell>
        <mxCell id="35jMkJhGXixxvMOsPopn-44" value="Yes" style="edgeLabel;html=1;align=center;verticalAlign=middle;resizable=0;points=[];fontSize=16;rounded=0;sketch=1;curveFitting=1;jiggle=2;labelBackgroundColor=none;fontColor=#1D3557;" vertex="1" connectable="0" parent="35jMkJhGXixxvMOsPopn-29">
          <mxGeometry x="-0.0735" y="-1" relative="1" as="geometry">
            <mxPoint as="offset" />
          </mxGeometry>
        </mxCell>
        <mxCell id="35jMkJhGXixxvMOsPopn-30" value="点击" style="rounded=0;whiteSpace=wrap;html=1;fontSize=12;glass=0;strokeWidth=1;shadow=0;sketch=1;curveFitting=1;jiggle=2;labelBackgroundColor=none;fillColor=#A8DADC;strokeColor=#457B9D;fontColor=#1D3557;" vertex="1" parent="WIyWlLk6GJQsqaUBKTNV-1">
          <mxGeometry x="360" y="790" width="120" height="40" as="geometry" />
        </mxCell>
        <mxCell id="35jMkJhGXixxvMOsPopn-31" value="" style="edgeStyle=none;curved=1;rounded=0;orthogonalLoop=1;jettySize=auto;html=1;fontSize=12;startSize=8;endSize=8;sketch=1;curveFitting=1;jiggle=2;labelBackgroundColor=none;strokeColor=#457B9D;fontColor=default;" edge="1" parent="WIyWlLk6GJQsqaUBKTNV-1" target="35jMkJhGXixxvMOsPopn-32">
          <mxGeometry relative="1" as="geometry">
            <mxPoint x="290" y="900" as="sourcePoint" />
          </mxGeometry>
        </mxCell>
        <mxCell id="35jMkJhGXixxvMOsPopn-43" value="Yes" style="edgeLabel;html=1;align=center;verticalAlign=middle;resizable=0;points=[];fontSize=16;rounded=0;sketch=1;curveFitting=1;jiggle=2;labelBackgroundColor=none;fontColor=#1D3557;" vertex="1" connectable="0" parent="35jMkJhGXixxvMOsPopn-31">
          <mxGeometry x="-0.0735" y="-3" relative="1" as="geometry">
            <mxPoint as="offset" />
          </mxGeometry>
        </mxCell>
        <mxCell id="35jMkJhGXixxvMOsPopn-32" value="点击" style="rounded=0;whiteSpace=wrap;html=1;fontSize=12;glass=0;strokeWidth=1;shadow=0;sketch=1;curveFitting=1;jiggle=2;labelBackgroundColor=none;fillColor=#A8DADC;strokeColor=#457B9D;fontColor=#1D3557;" vertex="1" parent="WIyWlLk6GJQsqaUBKTNV-1">
          <mxGeometry x="360" y="880" width="120" height="40" as="geometry" />
        </mxCell>
        <mxCell id="35jMkJhGXixxvMOsPopn-33" value="星之屿" style="rounded=0;whiteSpace=wrap;html=1;fontSize=12;glass=0;strokeWidth=1;shadow=0;sketch=1;curveFitting=1;jiggle=2;labelBackgroundColor=none;fillColor=#A8DADC;strokeColor=#457B9D;fontColor=#1D3557;" vertex="1" parent="WIyWlLk6GJQsqaUBKTNV-1">
          <mxGeometry x="170" y="970" width="120" height="40" as="geometry" />
        </mxCell>
        <mxCell id="35jMkJhGXixxvMOsPopn-36" value="" style="edgeStyle=none;curved=1;rounded=0;orthogonalLoop=1;jettySize=auto;html=1;fontSize=12;startSize=8;endSize=8;sketch=1;curveFitting=1;jiggle=2;labelBackgroundColor=none;strokeColor=#457B9D;fontColor=default;" edge="1" parent="WIyWlLk6GJQsqaUBKTNV-1" target="35jMkJhGXixxvMOsPopn-37">
          <mxGeometry relative="1" as="geometry">
            <mxPoint x="290" y="990" as="sourcePoint" />
          </mxGeometry>
        </mxCell>
        <mxCell id="35jMkJhGXixxvMOsPopn-42" value="Yes" style="edgeLabel;html=1;align=center;verticalAlign=middle;resizable=0;points=[];fontSize=16;rounded=0;sketch=1;curveFitting=1;jiggle=2;labelBackgroundColor=none;fontColor=#1D3557;" vertex="1" connectable="0" parent="35jMkJhGXixxvMOsPopn-36">
          <mxGeometry x="-0.1551" y="7" relative="1" as="geometry">
            <mxPoint as="offset" />
          </mxGeometry>
        </mxCell>
        <mxCell id="35jMkJhGXixxvMOsPopn-37" value="点击" style="rounded=0;whiteSpace=wrap;html=1;fontSize=12;glass=0;strokeWidth=1;shadow=0;sketch=1;curveFitting=1;jiggle=2;labelBackgroundColor=none;fillColor=#A8DADC;strokeColor=#457B9D;fontColor=#1D3557;" vertex="1" parent="WIyWlLk6GJQsqaUBKTNV-1">
          <mxGeometry x="360" y="970" width="120" height="40" as="geometry" />
        </mxCell>
        <mxCell id="35jMkJhGXixxvMOsPopn-40" value="" style="edgeStyle=none;curved=1;rounded=0;orthogonalLoop=1;jettySize=auto;html=1;fontSize=12;startSize=8;endSize=8;sketch=1;curveFitting=1;jiggle=2;labelBackgroundColor=none;strokeColor=#457B9D;fontColor=default;" edge="1" parent="WIyWlLk6GJQsqaUBKTNV-1" source="35jMkJhGXixxvMOsPopn-38" target="35jMkJhGXixxvMOsPopn-39">
          <mxGeometry relative="1" as="geometry" />
        </mxCell>
        <mxCell id="35jMkJhGXixxvMOsPopn-41" value="Yes" style="edgeLabel;html=1;align=center;verticalAlign=middle;resizable=0;points=[];fontSize=16;rounded=0;sketch=1;curveFitting=1;jiggle=2;labelBackgroundColor=none;fontColor=#1D3557;" vertex="1" connectable="0" parent="35jMkJhGXixxvMOsPopn-40">
          <mxGeometry x="-0.15" y="-4" relative="1" as="geometry">
            <mxPoint as="offset" />
          </mxGeometry>
        </mxCell>
        <mxCell id="35jMkJhGXixxvMOsPopn-38" value="神秘之屿" style="rounded=0;whiteSpace=wrap;html=1;fontSize=12;glass=0;strokeWidth=1;shadow=0;sketch=1;curveFitting=1;jiggle=2;labelBackgroundColor=none;fillColor=#A8DADC;strokeColor=#457B9D;fontColor=#1D3557;" vertex="1" parent="WIyWlLk6GJQsqaUBKTNV-1">
          <mxGeometry x="160" y="1090" width="120" height="40" as="geometry" />
        </mxCell>
        <mxCell id="35jMkJhGXixxvMOsPopn-49" value="" style="edgeStyle=none;curved=1;rounded=0;orthogonalLoop=1;jettySize=auto;html=1;fontSize=12;startSize=8;endSize=8;sketch=1;curveFitting=1;jiggle=2;labelBackgroundColor=none;strokeColor=#457B9D;fontColor=default;" edge="1" parent="WIyWlLk6GJQsqaUBKTNV-1" source="35jMkJhGXixxvMOsPopn-39">
          <mxGeometry relative="1" as="geometry">
            <mxPoint x="609" y="1110" as="targetPoint" />
          </mxGeometry>
        </mxCell>
        <mxCell id="35jMkJhGXixxvMOsPopn-50" value="Yes" style="edgeLabel;html=1;align=center;verticalAlign=middle;resizable=0;points=[];fontSize=16;rounded=0;sketch=1;curveFitting=1;jiggle=2;labelBackgroundColor=none;fontColor=#1D3557;" vertex="1" connectable="0" parent="35jMkJhGXixxvMOsPopn-49">
          <mxGeometry x="-0.1333" y="-1" relative="1" as="geometry">
            <mxPoint x="1" as="offset" />
          </mxGeometry>
        </mxCell>
        <mxCell id="35jMkJhGXixxvMOsPopn-52" value="" style="edgeStyle=none;curved=1;rounded=0;orthogonalLoop=1;jettySize=auto;html=1;fontSize=12;startSize=8;endSize=8;sketch=1;curveFitting=1;jiggle=2;labelBackgroundColor=none;strokeColor=#457B9D;fontColor=default;" edge="1" parent="WIyWlLk6GJQsqaUBKTNV-1" source="35jMkJhGXixxvMOsPopn-39" target="35jMkJhGXixxvMOsPopn-51">
          <mxGeometry relative="1" as="geometry" />
        </mxCell>
        <mxCell id="35jMkJhGXixxvMOsPopn-53" value="No" style="edgeLabel;html=1;align=center;verticalAlign=middle;resizable=0;points=[];fontSize=16;rounded=0;sketch=1;curveFitting=1;jiggle=2;labelBackgroundColor=none;fontColor=#1D3557;" vertex="1" connectable="0" parent="35jMkJhGXixxvMOsPopn-52">
          <mxGeometry x="-0.1476" y="1" relative="1" as="geometry">
            <mxPoint as="offset" />
          </mxGeometry>
        </mxCell>
        <mxCell id="35jMkJhGXixxvMOsPopn-39" value="技能转换" style="rounded=0;whiteSpace=wrap;html=1;fontSize=12;glass=0;strokeWidth=1;shadow=0;sketch=1;curveFitting=1;jiggle=2;labelBackgroundColor=none;fillColor=#A8DADC;strokeColor=#457B9D;fontColor=#1D3557;" vertex="1" parent="WIyWlLk6GJQsqaUBKTNV-1">
          <mxGeometry x="369" y="1090" width="120" height="40" as="geometry" />
        </mxCell>
        <mxCell id="35jMkJhGXixxvMOsPopn-48" value="退出岛屿" style="rounded=0;whiteSpace=wrap;html=1;fontSize=12;glass=0;strokeWidth=1;shadow=0;sketch=1;curveFitting=1;jiggle=2;labelBackgroundColor=none;fillColor=#A8DADC;strokeColor=#457B9D;fontColor=#1D3557;" vertex="1" parent="WIyWlLk6GJQsqaUBKTNV-1">
          <mxGeometry x="610" y="1090" width="120" height="40" as="geometry" />
        </mxCell>
        <mxCell id="35jMkJhGXixxvMOsPopn-125" value="" style="edgeStyle=none;curved=1;rounded=0;orthogonalLoop=1;jettySize=auto;html=1;fontSize=12;startSize=8;endSize=8;sketch=1;curveFitting=1;jiggle=2;labelBackgroundColor=none;strokeColor=#457B9D;fontColor=default;" edge="1" parent="WIyWlLk6GJQsqaUBKTNV-1" source="35jMkJhGXixxvMOsPopn-51" target="35jMkJhGXixxvMOsPopn-124">
          <mxGeometry relative="1" as="geometry" />
        </mxCell>
        <mxCell id="35jMkJhGXixxvMOsPopn-126" value="Yes" style="edgeLabel;html=1;align=center;verticalAlign=middle;resizable=0;points=[];fontSize=16;rounded=0;sketch=1;curveFitting=1;jiggle=2;labelBackgroundColor=none;fontColor=#1D3557;" vertex="1" connectable="0" parent="35jMkJhGXixxvMOsPopn-125">
          <mxGeometry x="-0.0536" y="-9" relative="1" as="geometry">
            <mxPoint as="offset" />
          </mxGeometry>
        </mxCell>
        <mxCell id="35jMkJhGXixxvMOsPopn-51" value="背包仿造" style="rounded=0;whiteSpace=wrap;html=1;fontSize=12;glass=0;strokeWidth=1;shadow=0;sketch=1;curveFitting=1;jiggle=2;labelBackgroundColor=none;fillColor=#A8DADC;strokeColor=#457B9D;fontColor=#1D3557;" vertex="1" parent="WIyWlLk6GJQsqaUBKTNV-1">
          <mxGeometry x="369" y="1190" width="120" height="40" as="geometry" />
        </mxCell>
        <mxCell id="35jMkJhGXixxvMOsPopn-56" value="" style="edgeStyle=none;curved=1;rounded=0;orthogonalLoop=1;jettySize=auto;html=1;fontSize=12;startSize=8;endSize=8;sketch=1;curveFitting=1;jiggle=2;labelBackgroundColor=none;strokeColor=#457B9D;fontColor=default;" edge="1" parent="WIyWlLk6GJQsqaUBKTNV-1" source="35jMkJhGXixxvMOsPopn-54">
          <mxGeometry relative="1" as="geometry">
            <mxPoint x="360" y="1290.0000000000002" as="targetPoint" />
          </mxGeometry>
        </mxCell>
        <mxCell id="35jMkJhGXixxvMOsPopn-57" value="Yes" style="edgeLabel;html=1;align=center;verticalAlign=middle;resizable=0;points=[];fontSize=16;rounded=0;sketch=1;curveFitting=1;jiggle=2;labelBackgroundColor=none;fontColor=#1D3557;" vertex="1" connectable="0" parent="35jMkJhGXixxvMOsPopn-56">
          <mxGeometry x="0.0167" relative="1" as="geometry">
            <mxPoint as="offset" />
          </mxGeometry>
        </mxCell>
        <mxCell id="35jMkJhGXixxvMOsPopn-60" value="" style="edgeStyle=none;curved=1;rounded=0;orthogonalLoop=1;jettySize=auto;html=1;fontSize=12;startSize=8;endSize=8;sketch=1;curveFitting=1;jiggle=2;labelBackgroundColor=none;strokeColor=#457B9D;fontColor=default;" edge="1" parent="WIyWlLk6GJQsqaUBKTNV-1">
          <mxGeometry relative="1" as="geometry">
            <mxPoint x="240" y="1290" as="sourcePoint" />
            <mxPoint x="360" y="1290.0000000000002" as="targetPoint" />
          </mxGeometry>
        </mxCell>
        <mxCell id="35jMkJhGXixxvMOsPopn-62" value="" style="edgeStyle=none;curved=1;rounded=0;orthogonalLoop=1;jettySize=auto;html=1;fontSize=12;startSize=8;endSize=8;sketch=1;curveFitting=1;jiggle=2;labelBackgroundColor=none;strokeColor=#457B9D;fontColor=default;" edge="1" parent="WIyWlLk6GJQsqaUBKTNV-1" source="35jMkJhGXixxvMOsPopn-54" target="35jMkJhGXixxvMOsPopn-61">
          <mxGeometry relative="1" as="geometry" />
        </mxCell>
        <mxCell id="35jMkJhGXixxvMOsPopn-72" value="" style="edgeStyle=none;curved=1;rounded=0;orthogonalLoop=1;jettySize=auto;html=1;fontSize=12;startSize=8;endSize=8;sketch=1;curveFitting=1;jiggle=2;labelBackgroundColor=none;strokeColor=#457B9D;fontColor=default;" edge="1" parent="WIyWlLk6GJQsqaUBKTNV-1" source="35jMkJhGXixxvMOsPopn-54" target="35jMkJhGXixxvMOsPopn-71">
          <mxGeometry relative="1" as="geometry" />
        </mxCell>
        <mxCell id="35jMkJhGXixxvMOsPopn-54" value="战斗岛屿" style="rounded=0;whiteSpace=wrap;html=1;fontSize=12;glass=0;strokeWidth=1;shadow=0;sketch=1;curveFitting=1;jiggle=2;labelBackgroundColor=none;fillColor=#A8DADC;strokeColor=#457B9D;fontColor=#1D3557;" vertex="1" parent="WIyWlLk6GJQsqaUBKTNV-1">
          <mxGeometry x="160" y="1270" width="120" height="40" as="geometry" />
        </mxCell>
        <mxCell id="35jMkJhGXixxvMOsPopn-67" value="" style="edgeStyle=none;curved=1;rounded=0;orthogonalLoop=1;jettySize=auto;html=1;fontSize=12;startSize=8;endSize=8;sketch=1;curveFitting=1;jiggle=2;labelBackgroundColor=none;strokeColor=#457B9D;fontColor=default;" edge="1" parent="WIyWlLk6GJQsqaUBKTNV-1" source="35jMkJhGXixxvMOsPopn-64" target="35jMkJhGXixxvMOsPopn-65">
          <mxGeometry relative="1" as="geometry" />
        </mxCell>
        <mxCell id="35jMkJhGXixxvMOsPopn-61" value="点击挑战" style="rounded=0;whiteSpace=wrap;html=1;fontSize=12;glass=0;strokeWidth=1;shadow=0;sketch=1;curveFitting=1;jiggle=2;labelBackgroundColor=none;fillColor=#A8DADC;strokeColor=#457B9D;fontColor=#1D3557;" vertex="1" parent="WIyWlLk6GJQsqaUBKTNV-1">
          <mxGeometry x="360" y="1270" width="120" height="40" as="geometry" />
        </mxCell>
        <mxCell id="35jMkJhGXixxvMOsPopn-63" value="" style="edgeStyle=none;curved=1;rounded=0;orthogonalLoop=1;jettySize=auto;html=1;fontSize=12;startSize=8;endSize=8;sketch=1;curveFitting=1;jiggle=2;labelBackgroundColor=none;strokeColor=#457B9D;fontColor=default;" edge="1" parent="WIyWlLk6GJQsqaUBKTNV-1" source="35jMkJhGXixxvMOsPopn-64" target="35jMkJhGXixxvMOsPopn-65">
          <mxGeometry relative="1" as="geometry" />
        </mxCell>
        <mxCell id="35jMkJhGXixxvMOsPopn-65" value="点击&lt;font color=&quot;#007fff&quot;&gt;&lt;b&gt;普通&lt;/b&gt;&lt;/font&gt;" style="rounded=0;whiteSpace=wrap;html=1;fontSize=12;glass=0;strokeWidth=1;shadow=0;sketch=1;curveFitting=1;jiggle=2;labelBackgroundColor=none;fillColor=#A8DADC;strokeColor=#457B9D;fontColor=#1D3557;" vertex="1" parent="WIyWlLk6GJQsqaUBKTNV-1">
          <mxGeometry x="360" y="1410" width="120" height="40" as="geometry" />
        </mxCell>
        <mxCell id="35jMkJhGXixxvMOsPopn-69" value="" style="edgeStyle=none;curved=1;rounded=0;orthogonalLoop=1;jettySize=auto;html=1;fontSize=12;startSize=8;endSize=8;sketch=1;curveFitting=1;jiggle=2;labelBackgroundColor=none;strokeColor=#457B9D;fontColor=default;" edge="1" parent="WIyWlLk6GJQsqaUBKTNV-1" source="35jMkJhGXixxvMOsPopn-61" target="35jMkJhGXixxvMOsPopn-64">
          <mxGeometry relative="1" as="geometry">
            <mxPoint x="420" y="1310" as="sourcePoint" />
            <mxPoint x="420" y="1440" as="targetPoint" />
          </mxGeometry>
        </mxCell>
        <mxCell id="35jMkJhGXixxvMOsPopn-70" value="No" style="edgeLabel;html=1;align=center;verticalAlign=middle;resizable=0;points=[];fontSize=16;rounded=0;sketch=1;curveFitting=1;jiggle=2;labelBackgroundColor=none;fontColor=#1D3557;" vertex="1" connectable="0" parent="35jMkJhGXixxvMOsPopn-69">
          <mxGeometry x="-0.8186" relative="1" as="geometry">
            <mxPoint as="offset" />
          </mxGeometry>
        </mxCell>
        <mxCell id="35jMkJhGXixxvMOsPopn-64" value="将&lt;b&gt;&lt;font color=&quot;#0000ff&quot;&gt;普通&lt;/font&gt;&lt;/b&gt;模板 的范围指定为&lt;font color=&quot;#3399ff&quot;&gt;[700,210,792,333]&lt;/font&gt;" style="rounded=0;whiteSpace=wrap;html=1;fontSize=12;glass=0;strokeWidth=1;shadow=0;sketch=1;curveFitting=1;jiggle=2;labelBackgroundColor=none;fillColor=#A8DADC;strokeColor=#457B9D;fontColor=#1D3557;" vertex="1" parent="WIyWlLk6GJQsqaUBKTNV-1">
          <mxGeometry x="360" y="1340" width="120" height="40" as="geometry" />
        </mxCell>
        <mxCell id="35jMkJhGXixxvMOsPopn-71" value="将&lt;b style=&quot;border-color: var(--border-color);&quot;&gt;&lt;font style=&quot;border-color: var(--border-color);&quot; color=&quot;#0000ff&quot;&gt;普通&lt;/font&gt;&lt;/b&gt;模板 的范围指定为&lt;font style=&quot;border-color: var(--border-color);&quot; color=&quot;#3399ff&quot;&gt;None&lt;/font&gt;" style="rounded=0;whiteSpace=wrap;html=1;fontSize=12;glass=0;strokeWidth=1;shadow=0;sketch=1;curveFitting=1;jiggle=2;labelBackgroundColor=none;fillColor=#A8DADC;strokeColor=#457B9D;fontColor=#1D3557;" vertex="1" parent="WIyWlLk6GJQsqaUBKTNV-1">
          <mxGeometry x="160" y="1350" width="120" height="40" as="geometry" />
        </mxCell>
        <mxCell id="35jMkJhGXixxvMOsPopn-73" value="点击选择" style="rounded=0;whiteSpace=wrap;html=1;fontSize=12;glass=0;strokeWidth=1;shadow=0;sketch=1;curveFitting=1;jiggle=2;labelBackgroundColor=none;fillColor=#A8DADC;strokeColor=#457B9D;fontColor=#1D3557;" vertex="1" parent="WIyWlLk6GJQsqaUBKTNV-1">
          <mxGeometry x="249.5" y="473" width="120" height="40" as="geometry" />
        </mxCell>
        <mxCell id="35jMkJhGXixxvMOsPopn-77" value="" style="edgeStyle=none;curved=1;rounded=0;orthogonalLoop=1;jettySize=auto;html=1;fontSize=12;startSize=8;endSize=8;sketch=1;curveFitting=1;jiggle=2;labelBackgroundColor=none;strokeColor=#457B9D;fontColor=default;" edge="1" parent="WIyWlLk6GJQsqaUBKTNV-1" source="35jMkJhGXixxvMOsPopn-75" target="35jMkJhGXixxvMOsPopn-76">
          <mxGeometry relative="1" as="geometry" />
        </mxCell>
        <mxCell id="35jMkJhGXixxvMOsPopn-78" value="Yes" style="edgeLabel;html=1;align=center;verticalAlign=middle;resizable=0;points=[];fontSize=16;rounded=0;sketch=1;curveFitting=1;jiggle=2;labelBackgroundColor=none;fontColor=#1D3557;" vertex="1" connectable="0" parent="35jMkJhGXixxvMOsPopn-77">
          <mxGeometry x="-0.1672" y="1" relative="1" as="geometry">
            <mxPoint as="offset" />
          </mxGeometry>
        </mxCell>
        <mxCell id="35jMkJhGXixxvMOsPopn-75" value="铃铛" style="rounded=0;whiteSpace=wrap;html=1;fontSize=12;glass=0;strokeWidth=1;shadow=0;sketch=1;curveFitting=1;jiggle=2;labelBackgroundColor=none;fillColor=#A8DADC;strokeColor=#457B9D;fontColor=#1D3557;" vertex="1" parent="WIyWlLk6GJQsqaUBKTNV-1">
          <mxGeometry x="160" y="1540" width="120" height="40" as="geometry" />
        </mxCell>
        <mxCell id="35jMkJhGXixxvMOsPopn-76" value="执行结算" style="rounded=0;whiteSpace=wrap;html=1;fontSize=12;glass=0;strokeWidth=1;shadow=0;sketch=1;curveFitting=1;jiggle=2;labelBackgroundColor=none;fillColor=#A8DADC;strokeColor=#457B9D;fontColor=#1D3557;" vertex="1" parent="WIyWlLk6GJQsqaUBKTNV-1">
          <mxGeometry x="360" y="1540" width="120" height="40" as="geometry" />
        </mxCell>
        <mxCell id="35jMkJhGXixxvMOsPopn-86" value="" style="edgeStyle=none;curved=1;rounded=0;orthogonalLoop=1;jettySize=auto;html=1;fontSize=12;startSize=8;endSize=8;sketch=1;curveFitting=1;jiggle=2;labelBackgroundColor=none;strokeColor=#457B9D;fontColor=default;" edge="1" parent="WIyWlLk6GJQsqaUBKTNV-1" source="35jMkJhGXixxvMOsPopn-80" target="35jMkJhGXixxvMOsPopn-85">
          <mxGeometry relative="1" as="geometry" />
        </mxCell>
        <mxCell id="35jMkJhGXixxvMOsPopn-87" value="No" style="edgeLabel;html=1;align=center;verticalAlign=middle;resizable=0;points=[];fontSize=16;rounded=0;sketch=1;curveFitting=1;jiggle=2;labelBackgroundColor=none;fontColor=#1D3557;" vertex="1" connectable="0" parent="35jMkJhGXixxvMOsPopn-86">
          <mxGeometry x="-0.25" y="4" relative="1" as="geometry">
            <mxPoint as="offset" />
          </mxGeometry>
        </mxCell>
        <mxCell id="35jMkJhGXixxvMOsPopn-80" value="点击挑战" style="rounded=0;whiteSpace=wrap;html=1;fontSize=12;glass=0;strokeWidth=1;shadow=0;sketch=1;curveFitting=1;jiggle=2;labelBackgroundColor=none;fillColor=#A8DADC;strokeColor=#457B9D;fontColor=#1D3557;" vertex="1" parent="WIyWlLk6GJQsqaUBKTNV-1">
          <mxGeometry x="360" y="1920" width="120" height="40" as="geometry" />
        </mxCell>
        <mxCell id="35jMkJhGXixxvMOsPopn-82" value="" style="edgeStyle=none;curved=1;rounded=0;orthogonalLoop=1;jettySize=auto;html=1;fontSize=12;startSize=8;endSize=8;sketch=1;curveFitting=1;jiggle=2;labelBackgroundColor=none;strokeColor=#457B9D;fontColor=default;" edge="1" parent="WIyWlLk6GJQsqaUBKTNV-1" source="35jMkJhGXixxvMOsPopn-81" target="35jMkJhGXixxvMOsPopn-80">
          <mxGeometry relative="1" as="geometry" />
        </mxCell>
        <mxCell id="35jMkJhGXixxvMOsPopn-83" value="Yes" style="edgeLabel;html=1;align=center;verticalAlign=middle;resizable=0;points=[];fontSize=16;rounded=0;sketch=1;curveFitting=1;jiggle=2;labelBackgroundColor=none;fontColor=#1D3557;" vertex="1" connectable="0" parent="35jMkJhGXixxvMOsPopn-82">
          <mxGeometry x="-0.0429" y="2" relative="1" as="geometry">
            <mxPoint as="offset" />
          </mxGeometry>
        </mxCell>
        <mxCell id="35jMkJhGXixxvMOsPopn-105" value="" style="edgeStyle=none;curved=1;rounded=0;orthogonalLoop=1;jettySize=auto;html=1;fontSize=12;startSize=8;endSize=8;sketch=1;curveFitting=1;jiggle=2;labelBackgroundColor=none;strokeColor=#457B9D;fontColor=default;" edge="1" parent="WIyWlLk6GJQsqaUBKTNV-1" source="35jMkJhGXixxvMOsPopn-81" target="35jMkJhGXixxvMOsPopn-80">
          <mxGeometry relative="1" as="geometry" />
        </mxCell>
        <mxCell id="35jMkJhGXixxvMOsPopn-106" value="" style="edgeStyle=none;curved=1;rounded=0;orthogonalLoop=1;jettySize=auto;html=1;fontSize=12;startSize=8;endSize=8;sketch=1;curveFitting=1;jiggle=2;labelBackgroundColor=none;strokeColor=#457B9D;fontColor=default;" edge="1" parent="WIyWlLk6GJQsqaUBKTNV-1" source="35jMkJhGXixxvMOsPopn-81" target="35jMkJhGXixxvMOsPopn-80">
          <mxGeometry relative="1" as="geometry" />
        </mxCell>
        <mxCell id="35jMkJhGXixxvMOsPopn-107" value="" style="edgeStyle=none;curved=1;rounded=0;orthogonalLoop=1;jettySize=auto;html=1;fontSize=12;startSize=8;endSize=8;sketch=1;curveFitting=1;jiggle=2;labelBackgroundColor=none;strokeColor=#457B9D;fontColor=default;" edge="1" parent="WIyWlLk6GJQsqaUBKTNV-1" source="35jMkJhGXixxvMOsPopn-81" target="35jMkJhGXixxvMOsPopn-80">
          <mxGeometry relative="1" as="geometry" />
        </mxCell>
        <mxCell id="35jMkJhGXixxvMOsPopn-108" value="" style="edgeStyle=none;curved=1;rounded=0;orthogonalLoop=1;jettySize=auto;html=1;fontSize=12;startSize=8;endSize=8;sketch=1;curveFitting=1;jiggle=2;labelBackgroundColor=none;strokeColor=#457B9D;fontColor=default;" edge="1" parent="WIyWlLk6GJQsqaUBKTNV-1" source="35jMkJhGXixxvMOsPopn-81" target="35jMkJhGXixxvMOsPopn-80">
          <mxGeometry relative="1" as="geometry" />
        </mxCell>
        <mxCell id="35jMkJhGXixxvMOsPopn-109" value="" style="edgeStyle=none;curved=1;rounded=0;orthogonalLoop=1;jettySize=auto;html=1;fontSize=12;startSize=8;endSize=8;sketch=1;curveFitting=1;jiggle=2;labelBackgroundColor=none;strokeColor=#457B9D;fontColor=default;" edge="1" parent="WIyWlLk6GJQsqaUBKTNV-1" source="35jMkJhGXixxvMOsPopn-81" target="35jMkJhGXixxvMOsPopn-80">
          <mxGeometry relative="1" as="geometry" />
        </mxCell>
        <mxCell id="35jMkJhGXixxvMOsPopn-81" value="混沌岛屿" style="rounded=0;whiteSpace=wrap;html=1;fontSize=12;glass=0;strokeWidth=1;shadow=0;sketch=1;curveFitting=1;jiggle=2;labelBackgroundColor=none;fillColor=#A8DADC;strokeColor=#457B9D;fontColor=#1D3557;" vertex="1" parent="WIyWlLk6GJQsqaUBKTNV-1">
          <mxGeometry x="160" y="1920" width="120" height="40" as="geometry" />
        </mxCell>
        <mxCell id="35jMkJhGXixxvMOsPopn-113" value="" style="edgeStyle=none;curved=1;rounded=0;orthogonalLoop=1;jettySize=auto;html=1;fontSize=12;startSize=8;endSize=8;sketch=1;curveFitting=1;jiggle=2;labelBackgroundColor=none;strokeColor=#457B9D;fontColor=default;" edge="1" parent="WIyWlLk6GJQsqaUBKTNV-1" source="35jMkJhGXixxvMOsPopn-85" target="35jMkJhGXixxvMOsPopn-112">
          <mxGeometry relative="1" as="geometry" />
        </mxCell>
        <mxCell id="35jMkJhGXixxvMOsPopn-114" value="No" style="edgeLabel;html=1;align=center;verticalAlign=middle;resizable=0;points=[];fontSize=16;rounded=0;sketch=1;curveFitting=1;jiggle=2;labelBackgroundColor=none;fontColor=#1D3557;" vertex="1" connectable="0" parent="35jMkJhGXixxvMOsPopn-113">
          <mxGeometry x="-0.3333" y="1" relative="1" as="geometry">
            <mxPoint as="offset" />
          </mxGeometry>
        </mxCell>
        <mxCell id="35jMkJhGXixxvMOsPopn-85" value="点击精英" style="rounded=0;whiteSpace=wrap;html=1;fontSize=12;glass=0;strokeWidth=1;shadow=0;sketch=1;curveFitting=1;jiggle=2;labelBackgroundColor=none;fillColor=#A8DADC;strokeColor=#457B9D;fontColor=#1D3557;" vertex="1" parent="WIyWlLk6GJQsqaUBKTNV-1">
          <mxGeometry x="360" y="2010" width="120" height="40" as="geometry" />
        </mxCell>
        <mxCell id="35jMkJhGXixxvMOsPopn-88" value="" style="edgeStyle=none;curved=1;rounded=0;orthogonalLoop=1;jettySize=auto;html=1;fontSize=12;startSize=8;endSize=8;sketch=1;curveFitting=1;jiggle=2;labelBackgroundColor=none;strokeColor=#457B9D;fontColor=default;" edge="1" parent="WIyWlLk6GJQsqaUBKTNV-1" source="35jMkJhGXixxvMOsPopn-93">
          <mxGeometry relative="1" as="geometry">
            <mxPoint x="360" y="2230" as="targetPoint" />
          </mxGeometry>
        </mxCell>
        <mxCell id="35jMkJhGXixxvMOsPopn-89" value="Yes" style="edgeLabel;html=1;align=center;verticalAlign=middle;resizable=0;points=[];fontSize=16;rounded=0;sketch=1;curveFitting=1;jiggle=2;labelBackgroundColor=none;fontColor=#1D3557;" vertex="1" connectable="0" parent="35jMkJhGXixxvMOsPopn-88">
          <mxGeometry x="0.0167" relative="1" as="geometry">
            <mxPoint as="offset" />
          </mxGeometry>
        </mxCell>
        <mxCell id="35jMkJhGXixxvMOsPopn-90" value="" style="edgeStyle=none;curved=1;rounded=0;orthogonalLoop=1;jettySize=auto;html=1;fontSize=12;startSize=8;endSize=8;sketch=1;curveFitting=1;jiggle=2;labelBackgroundColor=none;strokeColor=#457B9D;fontColor=default;" edge="1" parent="WIyWlLk6GJQsqaUBKTNV-1">
          <mxGeometry relative="1" as="geometry">
            <mxPoint x="240" y="2230" as="sourcePoint" />
            <mxPoint x="360" y="2230" as="targetPoint" />
          </mxGeometry>
        </mxCell>
        <mxCell id="35jMkJhGXixxvMOsPopn-91" value="" style="edgeStyle=none;curved=1;rounded=0;orthogonalLoop=1;jettySize=auto;html=1;fontSize=12;startSize=8;endSize=8;sketch=1;curveFitting=1;jiggle=2;labelBackgroundColor=none;strokeColor=#457B9D;fontColor=default;" edge="1" parent="WIyWlLk6GJQsqaUBKTNV-1" source="35jMkJhGXixxvMOsPopn-93" target="35jMkJhGXixxvMOsPopn-95">
          <mxGeometry relative="1" as="geometry" />
        </mxCell>
        <mxCell id="35jMkJhGXixxvMOsPopn-92" value="" style="edgeStyle=none;curved=1;rounded=0;orthogonalLoop=1;jettySize=auto;html=1;fontSize=12;startSize=8;endSize=8;sketch=1;curveFitting=1;jiggle=2;labelBackgroundColor=none;strokeColor=#457B9D;fontColor=default;" edge="1" parent="WIyWlLk6GJQsqaUBKTNV-1" source="35jMkJhGXixxvMOsPopn-93" target="35jMkJhGXixxvMOsPopn-101">
          <mxGeometry relative="1" as="geometry" />
        </mxCell>
        <mxCell id="35jMkJhGXixxvMOsPopn-93" value="星之岛屿" style="rounded=0;whiteSpace=wrap;html=1;fontSize=12;glass=0;strokeWidth=1;shadow=0;sketch=1;curveFitting=1;jiggle=2;labelBackgroundColor=none;fillColor=#A8DADC;strokeColor=#457B9D;fontColor=#1D3557;" vertex="1" parent="WIyWlLk6GJQsqaUBKTNV-1">
          <mxGeometry x="160" y="2210" width="120" height="40" as="geometry" />
        </mxCell>
        <mxCell id="35jMkJhGXixxvMOsPopn-94" value="" style="edgeStyle=none;curved=1;rounded=0;orthogonalLoop=1;jettySize=auto;html=1;fontSize=12;startSize=8;endSize=8;sketch=1;curveFitting=1;jiggle=2;labelBackgroundColor=none;strokeColor=#457B9D;fontColor=default;" edge="1" parent="WIyWlLk6GJQsqaUBKTNV-1" source="35jMkJhGXixxvMOsPopn-100" target="35jMkJhGXixxvMOsPopn-97">
          <mxGeometry relative="1" as="geometry" />
        </mxCell>
        <mxCell id="35jMkJhGXixxvMOsPopn-95" value="点击挑战" style="rounded=0;whiteSpace=wrap;html=1;fontSize=12;glass=0;strokeWidth=1;shadow=0;sketch=1;curveFitting=1;jiggle=2;labelBackgroundColor=none;fillColor=#A8DADC;strokeColor=#457B9D;fontColor=#1D3557;" vertex="1" parent="WIyWlLk6GJQsqaUBKTNV-1">
          <mxGeometry x="360" y="2210" width="120" height="40" as="geometry" />
        </mxCell>
        <mxCell id="35jMkJhGXixxvMOsPopn-96" value="" style="edgeStyle=none;curved=1;rounded=0;orthogonalLoop=1;jettySize=auto;html=1;fontSize=12;startSize=8;endSize=8;sketch=1;curveFitting=1;jiggle=2;labelBackgroundColor=none;strokeColor=#457B9D;fontColor=default;" edge="1" parent="WIyWlLk6GJQsqaUBKTNV-1" source="35jMkJhGXixxvMOsPopn-100" target="35jMkJhGXixxvMOsPopn-97">
          <mxGeometry relative="1" as="geometry" />
        </mxCell>
        <mxCell id="35jMkJhGXixxvMOsPopn-97" value="点击&lt;font color=&quot;#007fff&quot;&gt;&lt;b&gt;普通&lt;/b&gt;&lt;/font&gt;" style="rounded=0;whiteSpace=wrap;html=1;fontSize=12;glass=0;strokeWidth=1;shadow=0;sketch=1;curveFitting=1;jiggle=2;labelBackgroundColor=none;fillColor=#A8DADC;strokeColor=#457B9D;fontColor=#1D3557;" vertex="1" parent="WIyWlLk6GJQsqaUBKTNV-1">
          <mxGeometry x="360" y="2350" width="120" height="40" as="geometry" />
        </mxCell>
        <mxCell id="35jMkJhGXixxvMOsPopn-98" value="" style="edgeStyle=none;curved=1;rounded=0;orthogonalLoop=1;jettySize=auto;html=1;fontSize=12;startSize=8;endSize=8;sketch=1;curveFitting=1;jiggle=2;labelBackgroundColor=none;strokeColor=#457B9D;fontColor=default;" edge="1" parent="WIyWlLk6GJQsqaUBKTNV-1" source="35jMkJhGXixxvMOsPopn-95" target="35jMkJhGXixxvMOsPopn-100">
          <mxGeometry relative="1" as="geometry">
            <mxPoint x="420" y="2250" as="sourcePoint" />
            <mxPoint x="420" y="2380" as="targetPoint" />
          </mxGeometry>
        </mxCell>
        <mxCell id="35jMkJhGXixxvMOsPopn-99" value="No" style="edgeLabel;html=1;align=center;verticalAlign=middle;resizable=0;points=[];fontSize=16;rounded=0;sketch=1;curveFitting=1;jiggle=2;labelBackgroundColor=none;fontColor=#1D3557;" vertex="1" connectable="0" parent="35jMkJhGXixxvMOsPopn-98">
          <mxGeometry x="-0.8186" relative="1" as="geometry">
            <mxPoint as="offset" />
          </mxGeometry>
        </mxCell>
        <mxCell id="35jMkJhGXixxvMOsPopn-100" value="将&lt;b&gt;&lt;font color=&quot;#0000ff&quot;&gt;普通&lt;/font&gt;&lt;/b&gt;模板 的范围指定为&lt;font color=&quot;#3399ff&quot;&gt;[387,179,482,268]&lt;/font&gt;" style="rounded=0;whiteSpace=wrap;html=1;fontSize=12;glass=0;strokeWidth=1;shadow=0;sketch=1;curveFitting=1;jiggle=2;labelBackgroundColor=none;fillColor=#A8DADC;strokeColor=#457B9D;fontColor=#1D3557;" vertex="1" parent="WIyWlLk6GJQsqaUBKTNV-1">
          <mxGeometry x="360" y="2280" width="120" height="40" as="geometry" />
        </mxCell>
        <mxCell id="35jMkJhGXixxvMOsPopn-101" value="将&lt;b style=&quot;border-color: var(--border-color);&quot;&gt;&lt;font style=&quot;border-color: var(--border-color);&quot; color=&quot;#0000ff&quot;&gt;普通&lt;/font&gt;&lt;/b&gt;模板 的范围指定为&lt;font style=&quot;border-color: var(--border-color);&quot; color=&quot;#3399ff&quot;&gt;None&lt;/font&gt;" style="rounded=0;whiteSpace=wrap;html=1;fontSize=12;glass=0;strokeWidth=1;shadow=0;sketch=1;curveFitting=1;jiggle=2;labelBackgroundColor=none;fillColor=#A8DADC;strokeColor=#457B9D;fontColor=#1D3557;" vertex="1" parent="WIyWlLk6GJQsqaUBKTNV-1">
          <mxGeometry x="160" y="2290" width="120" height="40" as="geometry" />
        </mxCell>
        <mxCell id="35jMkJhGXixxvMOsPopn-112" value="点击离开" style="rounded=0;whiteSpace=wrap;html=1;fontSize=12;glass=0;strokeWidth=1;shadow=0;sketch=1;curveFitting=1;jiggle=2;labelBackgroundColor=none;fillColor=#A8DADC;strokeColor=#457B9D;fontColor=#1D3557;" vertex="1" parent="WIyWlLk6GJQsqaUBKTNV-1">
          <mxGeometry x="360" y="2090" width="120" height="40" as="geometry" />
        </mxCell>
        <mxCell id="35jMkJhGXixxvMOsPopn-116" value="" style="edgeStyle=none;curved=1;rounded=0;orthogonalLoop=1;jettySize=auto;html=1;fontSize=12;startSize=8;endSize=8;sketch=1;curveFitting=1;jiggle=2;labelBackgroundColor=none;strokeColor=#457B9D;fontColor=default;" edge="1" parent="WIyWlLk6GJQsqaUBKTNV-1" source="35jMkJhGXixxvMOsPopn-118" target="35jMkJhGXixxvMOsPopn-119">
          <mxGeometry relative="1" as="geometry" />
        </mxCell>
        <mxCell id="35jMkJhGXixxvMOsPopn-117" value="Yes" style="edgeLabel;html=1;align=center;verticalAlign=middle;resizable=0;points=[];fontSize=16;rounded=0;sketch=1;curveFitting=1;jiggle=2;labelBackgroundColor=none;fontColor=#1D3557;" vertex="1" connectable="0" parent="35jMkJhGXixxvMOsPopn-116">
          <mxGeometry x="-0.1672" y="1" relative="1" as="geometry">
            <mxPoint as="offset" />
          </mxGeometry>
        </mxCell>
        <mxCell id="35jMkJhGXixxvMOsPopn-118" value="分享" style="rounded=0;whiteSpace=wrap;html=1;fontSize=12;glass=0;strokeWidth=1;shadow=0;sketch=1;curveFitting=1;jiggle=2;labelBackgroundColor=none;fillColor=#A8DADC;strokeColor=#457B9D;fontColor=#1D3557;" vertex="1" parent="WIyWlLk6GJQsqaUBKTNV-1">
          <mxGeometry x="160" y="1600" width="120" height="40" as="geometry" />
        </mxCell>
        <mxCell id="35jMkJhGXixxvMOsPopn-119" value="执行结算" style="rounded=0;whiteSpace=wrap;html=1;fontSize=12;glass=0;strokeWidth=1;shadow=0;sketch=1;curveFitting=1;jiggle=2;labelBackgroundColor=none;fillColor=#A8DADC;strokeColor=#457B9D;fontColor=#1D3557;" vertex="1" parent="WIyWlLk6GJQsqaUBKTNV-1">
          <mxGeometry x="360" y="1600" width="120" height="40" as="geometry" />
        </mxCell>
        <mxCell id="35jMkJhGXixxvMOsPopn-120" value="" style="edgeStyle=none;curved=1;rounded=0;orthogonalLoop=1;jettySize=auto;html=1;fontSize=12;startSize=8;endSize=8;sketch=1;curveFitting=1;jiggle=2;labelBackgroundColor=none;strokeColor=#457B9D;fontColor=default;" edge="1" parent="WIyWlLk6GJQsqaUBKTNV-1" source="35jMkJhGXixxvMOsPopn-122" target="35jMkJhGXixxvMOsPopn-123">
          <mxGeometry relative="1" as="geometry" />
        </mxCell>
        <mxCell id="35jMkJhGXixxvMOsPopn-121" value="Yes" style="edgeLabel;html=1;align=center;verticalAlign=middle;resizable=0;points=[];fontSize=16;rounded=0;sketch=1;curveFitting=1;jiggle=2;labelBackgroundColor=none;fontColor=#1D3557;" vertex="1" connectable="0" parent="35jMkJhGXixxvMOsPopn-120">
          <mxGeometry x="-0.1672" y="1" relative="1" as="geometry">
            <mxPoint as="offset" />
          </mxGeometry>
        </mxCell>
        <mxCell id="35jMkJhGXixxvMOsPopn-122" value="获得奖励" style="rounded=0;whiteSpace=wrap;html=1;fontSize=12;glass=0;strokeWidth=1;shadow=0;sketch=1;curveFitting=1;jiggle=2;labelBackgroundColor=none;fillColor=#A8DADC;strokeColor=#457B9D;fontColor=#1D3557;" vertex="1" parent="WIyWlLk6GJQsqaUBKTNV-1">
          <mxGeometry x="160" y="1660" width="120" height="40" as="geometry" />
        </mxCell>
        <mxCell id="35jMkJhGXixxvMOsPopn-123" value="执行结算" style="rounded=0;whiteSpace=wrap;html=1;fontSize=12;glass=0;strokeWidth=1;shadow=0;sketch=1;curveFitting=1;jiggle=2;labelBackgroundColor=none;fillColor=#A8DADC;strokeColor=#457B9D;fontColor=#1D3557;" vertex="1" parent="WIyWlLk6GJQsqaUBKTNV-1">
          <mxGeometry x="360" y="1660" width="120" height="40" as="geometry" />
        </mxCell>
        <mxCell id="35jMkJhGXixxvMOsPopn-128" value="" style="edgeStyle=none;curved=1;rounded=0;orthogonalLoop=1;jettySize=auto;html=1;fontSize=12;startSize=8;endSize=8;sketch=1;curveFitting=1;jiggle=2;labelBackgroundColor=none;strokeColor=#457B9D;fontColor=default;" edge="1" parent="WIyWlLk6GJQsqaUBKTNV-1" source="35jMkJhGXixxvMOsPopn-124" target="35jMkJhGXixxvMOsPopn-127">
          <mxGeometry relative="1" as="geometry" />
        </mxCell>
        <mxCell id="35jMkJhGXixxvMOsPopn-129" value="Yes" style="edgeLabel;html=1;align=center;verticalAlign=middle;resizable=0;points=[];fontSize=16;rounded=0;sketch=1;curveFitting=1;jiggle=2;labelBackgroundColor=none;fontColor=#1D3557;" vertex="1" connectable="0" parent="35jMkJhGXixxvMOsPopn-128">
          <mxGeometry x="-0.2855" y="-1" relative="1" as="geometry">
            <mxPoint as="offset" />
          </mxGeometry>
        </mxCell>
        <mxCell id="35jMkJhGXixxvMOsPopn-131" value="" style="edgeStyle=none;curved=1;rounded=0;orthogonalLoop=1;jettySize=auto;html=1;fontSize=12;startSize=8;endSize=8;sketch=1;curveFitting=1;jiggle=2;labelBackgroundColor=none;strokeColor=#457B9D;fontColor=default;" edge="1" parent="WIyWlLk6GJQsqaUBKTNV-1" source="35jMkJhGXixxvMOsPopn-124" target="35jMkJhGXixxvMOsPopn-130">
          <mxGeometry relative="1" as="geometry" />
        </mxCell>
        <mxCell id="35jMkJhGXixxvMOsPopn-132" value="No" style="edgeLabel;html=1;align=center;verticalAlign=middle;resizable=0;points=[];fontSize=16;rounded=0;sketch=1;curveFitting=1;jiggle=2;labelBackgroundColor=none;fontColor=#1D3557;" vertex="1" connectable="0" parent="35jMkJhGXixxvMOsPopn-131">
          <mxGeometry x="-0.3457" relative="1" as="geometry">
            <mxPoint as="offset" />
          </mxGeometry>
        </mxCell>
        <mxCell id="35jMkJhGXixxvMOsPopn-124" value="等级5" style="rounded=0;whiteSpace=wrap;html=1;fontSize=12;glass=0;strokeWidth=1;shadow=0;sketch=1;curveFitting=1;jiggle=2;labelBackgroundColor=none;fillColor=#A8DADC;strokeColor=#457B9D;fontColor=#1D3557;" vertex="1" parent="WIyWlLk6GJQsqaUBKTNV-1">
          <mxGeometry x="609" y="1190" width="120" height="40" as="geometry" />
        </mxCell>
        <mxCell id="35jMkJhGXixxvMOsPopn-127" value="退出岛屿" style="rounded=0;whiteSpace=wrap;html=1;fontSize=12;glass=0;strokeWidth=1;shadow=0;sketch=1;curveFitting=1;jiggle=2;labelBackgroundColor=none;fillColor=#A8DADC;strokeColor=#457B9D;fontColor=#1D3557;" vertex="1" parent="WIyWlLk6GJQsqaUBKTNV-1">
          <mxGeometry x="849" y="1190" width="120" height="40" as="geometry" />
        </mxCell>
        <mxCell id="35jMkJhGXixxvMOsPopn-138" value="" style="edgeStyle=none;curved=1;rounded=0;orthogonalLoop=1;jettySize=auto;html=1;fontSize=12;startSize=8;endSize=8;sketch=1;curveFitting=1;jiggle=2;labelBackgroundColor=none;strokeColor=#457B9D;fontColor=default;" edge="1" parent="WIyWlLk6GJQsqaUBKTNV-1" source="35jMkJhGXixxvMOsPopn-130" target="35jMkJhGXixxvMOsPopn-137">
          <mxGeometry relative="1" as="geometry" />
        </mxCell>
        <mxCell id="35jMkJhGXixxvMOsPopn-130" value="点击柔风抱暖(含找色" style="rounded=0;whiteSpace=wrap;html=1;fontSize=12;glass=0;strokeWidth=1;shadow=0;sketch=1;curveFitting=1;jiggle=2;labelBackgroundColor=none;fillColor=#A8DADC;strokeColor=#457B9D;fontColor=#1D3557;" vertex="1" parent="WIyWlLk6GJQsqaUBKTNV-1">
          <mxGeometry x="610" y="1280" width="120" height="40" as="geometry" />
        </mxCell>
        <mxCell id="35jMkJhGXixxvMOsPopn-140" value="" style="edgeStyle=none;curved=1;rounded=0;sketch=1;hachureGap=4;jiggle=2;curveFitting=1;orthogonalLoop=1;jettySize=auto;html=1;fontFamily=Architects Daughter;fontSource=https%3A%2F%2Ffonts.googleapis.com%2Fcss%3Ffamily%3DArchitects%2BDaughter;fontSize=16;startSize=8;endSize=8;labelBackgroundColor=none;strokeColor=#457B9D;fontColor=default;" edge="1" parent="WIyWlLk6GJQsqaUBKTNV-1" source="35jMkJhGXixxvMOsPopn-137" target="35jMkJhGXixxvMOsPopn-139">
          <mxGeometry relative="1" as="geometry" />
        </mxCell>
        <mxCell id="35jMkJhGXixxvMOsPopn-137" value="点击仿造" style="rounded=0;whiteSpace=wrap;html=1;fontSize=12;glass=0;strokeWidth=1;shadow=0;sketch=1;curveFitting=1;jiggle=2;labelBackgroundColor=none;fillColor=#A8DADC;strokeColor=#457B9D;fontColor=#1D3557;" vertex="1" parent="WIyWlLk6GJQsqaUBKTNV-1">
          <mxGeometry x="610" y="1360" width="120" height="40" as="geometry" />
        </mxCell>
        <mxCell id="35jMkJhGXixxvMOsPopn-139" value="点击确认" style="rounded=0;whiteSpace=wrap;html=1;fontSize=12;glass=0;strokeWidth=1;shadow=0;sketch=1;curveFitting=1;jiggle=2;labelBackgroundColor=none;fillColor=#A8DADC;strokeColor=#457B9D;fontColor=#1D3557;" vertex="1" parent="WIyWlLk6GJQsqaUBKTNV-1">
          <mxGeometry x="609" y="1440" width="120" height="40" as="geometry" />
        </mxCell>
        <mxCell id="35jMkJhGXixxvMOsPopn-143" value="点击挑战" style="rounded=0;whiteSpace=wrap;html=1;fontSize=12;glass=0;strokeWidth=1;shadow=0;sketch=1;curveFitting=1;jiggle=2;labelBackgroundColor=none;fillColor=#A8DADC;strokeColor=#457B9D;fontColor=#1D3557;" vertex="1" parent="WIyWlLk6GJQsqaUBKTNV-1">
          <mxGeometry x="160" y="1760" width="120" height="40" as="geometry" />
        </mxCell>
      </root>
    </mxGraphModel>
  </diagram>
</mxfile>
